<?xml version="1.0" standalone="no"?>
<!DOCTYPE svg PUBLIC "-//W3C//DTD SVG 20010904//EN"
 "http://www.w3.org/TR/2001/REC-SVG-20010904/DTD/svg10.dtd">
<svg version="1.0" xmlns="http://www.w3.org/2000/svg"
 width="1000.000000pt" height="1000.000000pt" viewBox="0 0 1000.000000 1000.000000"
 preserveAspectRatio="xMidYMid meet">
<metadata>
Created by potrace 1.11, written by Peter Selinger 2001-2013
</metadata>
<g transform="translate(0.000000,1000.000000) scale(0.100000,-0.100000)"
fill="#000000" stroke="none">
<path d="M4635 9980 c-33 -9 -79 -25 -102 -33 -24 -9 -43 -14 -43 -12 0 3 -10
1 -23 -4 -13 -5 -39 -12 -58 -14 -65 -10 -194 -26 -259 -32 -36 -4 -105 -15
-155 -27 -49 -11 -101 -22 -115 -24 -14 -2 -36 -7 -50 -9 -48 -10 -68 -13
-106 -19 -76 -12 -250 -59 -284 -77 -19 -10 -60 -41 -90 -69 -53 -48 -179
-120 -213 -120 -9 0 -18 -4 -22 -9 -3 -5 -18 -12 -34 -16 -16 -3 -35 -13 -41
-21 -7 -7 -16 -12 -20 -9 -4 2 -16 -4 -26 -13 -23 -21 -89 -68 -89 -64 0 4
-53 -7 -75 -15 -8 -4 -17 -7 -20 -8 -3 -1 -19 -8 -37 -14 -18 -7 -35 -12 -39
-11 -4 1 -10 -2 -13 -7 -3 -4 -35 -23 -71 -42 -182 -95 -285 -159 -335 -206
-17 -15 -53 -45 -81 -66 -62 -46 -186 -167 -211 -206 -30 -49 -100 -136 -153
-193 -28 -30 -67 -82 -87 -115 -20 -33 -39 -62 -42 -65 -40 -36 -106 -153
-115 -206 -3 -13 -8 -29 -11 -34 -4 -6 -9 -25 -12 -42 -3 -18 -17 -68 -32
-113 -22 -65 -28 -97 -26 -156 2 -50 -2 -84 -12 -103 -8 -16 -19 -54 -24 -85
-5 -31 -14 -85 -19 -121 -6 -36 -13 -90 -16 -120 -3 -30 -11 -71 -18 -90 -20
-56 -11 -80 29 -72 18 3 25 0 25 -11 0 -17 -16 -30 -39 -34 -35 -5 -44 -29
-31 -82 11 -47 19 -57 45 -51 6 1 15 3 20 4 6 1 15 5 22 9 6 4 15 3 18 -3 4
-6 -6 -16 -23 -22 -17 -7 -33 -20 -36 -31 -4 -18 -3 -31 10 -89 5 -26 3 -28
-34 -34 l-40 -6 2 -49 c2 -35 -5 -67 -25 -112 -15 -34 -30 -82 -34 -107 -4
-27 -14 -51 -26 -60 -11 -9 -19 -26 -18 -40 1 -14 -3 -36 -8 -50 -20 -50 1
-195 32 -227 7 -7 13 -34 13 -60 2 -145 12 -508 16 -568 7 -94 16 -207 20
-225 1 -8 6 -31 10 -50 4 -19 8 -42 10 -50 2 -8 6 -26 9 -40 13 -48 24 -122
32 -205 7 -75 13 -114 36 -230 5 -27 11 -61 13 -75 2 -14 8 -50 14 -80 7 -30
14 -68 16 -83 3 -15 12 -54 22 -85 9 -31 17 -61 18 -67 7 -38 142 -433 153
-446 7 -9 10 -19 6 -22 -3 -4 -1 -7 5 -7 7 0 12 -7 12 -15 0 -56 59 -96 99
-65 20 15 22 22 16 58 -4 23 -11 44 -16 47 -4 3 -2 23 6 43 14 34 13 43 -4
103 -10 37 -15 71 -11 75 5 5 10 23 13 39 5 34 36 115 49 130 4 5 8 19 8 32 0
24 29 34 31 11 2 -18 7 -59 11 -84 5 -29 37 -76 47 -69 8 4 23 56 35 125 27
141 39 90 40 -161 1 -218 6 -252 36 -234 7 4 18 23 26 41 11 27 12 42 2 78 -8
32 -9 51 -1 68 6 13 9 64 8 113 -1 50 2 98 7 107 5 10 11 37 14 60 4 24 10 48
14 53 6 8 40 109 45 135 15 77 17 84 26 69 5 -10 4 -30 -2 -50 -6 -19 -12 -71
-13 -116 -3 -67 0 -83 11 -83 27 0 63 55 63 95 0 13 9 39 19 56 18 30 19 35 5
62 -17 32 -13 57 10 57 8 0 20 16 27 35 7 19 21 37 30 40 10 4 21 14 24 24 3
10 14 26 25 36 25 22 28 70 4 61 -9 -3 -18 -6 -20 -6 -2 0 -4 -6 -4 -12 0 -7
-10 -24 -21 -38 l-20 -25 4 38 c3 20 10 44 17 52 7 8 10 15 7 15 -4 0 14 40
38 89 24 48 47 99 50 113 4 13 17 37 31 51 13 15 24 29 24 32 0 3 6 18 13 33
8 15 13 38 12 52 -1 14 5 30 13 36 13 10 13 14 -6 34 -12 13 -22 27 -22 31 0
25 161 67 289 75 31 2 94 17 141 35 87 32 190 61 190 53 0 -2 18 5 40 16 22
11 65 27 97 36 32 9 76 21 97 27 35 9 41 8 57 -11 9 -12 26 -22 38 -22 11 0
32 -5 46 -12 19 -8 34 -8 62 0 31 10 40 8 64 -8 38 -28 53 -26 45 5 -4 14 -3
25 2 25 15 0 32 -24 32 -45 0 -11 7 -38 14 -60 14 -38 13 -42 -10 -82 -30 -52
-30 -56 0 -73 20 -10 31 -10 55 0 17 7 31 15 32 19 7 43 3 73 -12 105 -11 22
-19 48 -19 59 0 10 -4 26 -9 35 -5 10 -11 33 -13 52 -6 52 -36 107 -71 129
-19 12 -25 21 -16 21 35 0 85 -63 107 -135 38 -127 61 -229 68 -304 l7 -74
-22 15 c-19 13 -27 13 -69 1 -119 -36 -124 -54 -20 -67 50 -6 55 -10 62 -51 4
-21 13 -35 21 -35 15 0 18 12 18 78 1 53 18 35 33 -34 3 -19 45 -157 54 -179
50 -131 103 -222 185 -318 68 -80 138 -132 242 -178 38 -17 76 -35 86 -40 10
-6 41 -13 68 -16 45 -5 49 -4 49 15 0 22 -14 35 -44 39 -42 7 -271 198 -326
272 -14 18 -33 43 -42 53 -9 11 -22 36 -29 57 -6 20 -17 50 -24 66 -22 51 -53
148 -60 190 -4 22 -9 53 -11 68 -5 25 -3 27 22 23 20 -4 43 5 85 30 63 39 88
43 233 31 51 -5 86 -13 97 -23 10 -9 32 -15 51 -14 48 3 55 1 36 -11 -28 -16
-22 -25 29 -50 54 -26 88 -27 116 -2 18 17 19 17 28 0 6 -9 16 -17 24 -17 7 0
15 -6 18 -12 6 -19 -11 -48 -28 -48 -22 0 -57 -39 -51 -56 3 -8 -1 -14 -9 -14
-36 0 -117 -26 -162 -53 -48 -27 -48 -56 0 -58 106 -5 270 3 337 15 14 2 52 7
85 11 33 4 103 22 155 42 118 44 130 50 130 68 0 18 12 19 28 3 18 -18 30 5
26 48 -5 57 -20 74 -64 74 -22 0 -40 5 -40 10 0 6 3 10 8 11 4 0 17 2 28 3 45
5 82 74 65 119 -9 23 -8 27 9 27 10 0 21 -4 24 -9 18 -28 86 32 86 75 0 20 4
23 39 21 22 0 44 5 53 13 21 22 39 100 27 122 -10 18 -13 20 -46 21 -18 1 -33
15 -33 30 0 4 11 7 25 7 19 0 28 7 36 28 5 15 12 34 16 42 9 22 13 41 17 72 2
14 9 40 16 58 10 23 10 37 2 55 -14 30 -2 32 29 4 16 -14 20 -22 12 -25 -41
-17 69 -90 119 -79 28 7 28 7 22 -33 -5 -32 -3 -40 12 -46 18 -7 34 8 34 32 0
40 68 -35 115 -128 40 -80 61 -151 68 -230 2 -23 -14 -134 -21 -145 -4 -5 -7
-12 -7 -15 -4 -22 -19 -77 -26 -90 -8 -16 -19 -47 -18 -55 0 -12 -107 -211
-124 -230 -10 -11 -27 -33 -37 -50 -28 -44 -156 -165 -225 -212 -68 -45 -158
-90 -195 -96 -14 -2 -32 -7 -40 -10 -25 -10 -123 -36 -160 -42 -19 -4 -87 -7
-150 -7 -112 1 -180 -10 -180 -29 0 -15 56 -38 107 -45 124 -15 291 -4 412 27
42 11 86 22 99 23 12 2 30 10 40 18 9 9 27 19 40 23 25 7 182 122 182 133 0 8
78 44 130 61 37 11 74 63 149 206 18 33 36 67 40 75 40 72 125 309 134 370 7
52 17 72 50 102 59 54 225 61 323 13 55 -27 112 -84 138 -139 15 -32 38 -87
41 -96 0 -3 6 -15 13 -26 6 -12 16 -39 21 -60 6 -22 17 -66 26 -99 22 -83 25
-96 29 -130 3 -16 9 -42 14 -56 6 -14 18 -57 27 -95 10 -38 21 -71 24 -74 4
-3 20 -27 35 -55 97 -169 214 -275 399 -360 128 -58 225 -79 372 -79 161 0
251 8 338 32 44 12 51 7 75 -53 10 -28 23 -59 27 -70 5 -11 9 -22 10 -25 1 -3
5 -13 10 -23 5 -12 2 -24 -10 -37 -13 -15 -15 -28 -10 -62 7 -43 20 -68 35
-68 9 0 23 52 24 85 0 11 12 30 27 42 17 15 37 52 55 103 15 44 34 86 41 92
19 15 17 -10 -3 -58 -19 -43 -22 -163 -6 -204 5 -14 6 -37 1 -54 -5 -15 -11
-68 -14 -117 -6 -95 -28 -168 -40 -136 -9 21 -29 22 -49 2 -21 -21 -9 -48 18
-41 17 4 21 0 22 -22 2 -31 7 -52 16 -67 3 -5 2 -19 -2 -30 -6 -18 -8 -18 -32
7 -18 20 -28 24 -36 16 -17 -17 15 -63 59 -85 33 -15 40 -25 51 -68 14 -58 14
-103 -1 -118 -8 -8 -11 -8 -11 1 0 19 -36 34 -48 19 -7 -8 -3 -28 15 -67 36
-78 43 -97 36 -104 -3 -3 -13 4 -22 15 -16 20 -18 20 -31 4 -11 -13 -12 -25
-2 -61 15 -57 15 -64 -2 -64 -8 0 -21 18 -30 40 -9 22 -18 40 -21 40 -9 0 -23
-44 -30 -91 -4 -24 -15 -62 -25 -85 -20 -42 -21 -59 -5 -84 5 -8 8 -27 7 -42
-1 -16 4 -42 13 -58 8 -16 15 -34 15 -40 0 -15 -26 -12 -40 5 -7 8 -30 20 -52
25 -23 7 -57 29 -84 56 -25 24 -50 44 -55 44 -5 0 -15 12 -22 28 -6 15 -20 33
-30 40 -13 10 -16 22 -12 46 5 23 1 38 -13 56 l-19 23 -22 -22 c-17 -17 -26
-20 -34 -12 -6 6 -8 11 -3 11 4 0 -2 14 -14 30 -13 19 -30 30 -45 30 -38 0
-73 17 -80 40 -6 17 -12 20 -33 15 -22 -5 -24 -4 -12 10 17 20 6 29 -43 34 -4
1 -11 11 -16 24 -16 42 -45 27 -65 -35 -5 -16 -11 -18 -68 -18 -63 -1 -72 6
-37 28 20 13 20 14 4 32 -10 11 -24 16 -33 13 -9 -4 -13 -2 -9 4 10 15 -20 43
-44 43 -11 0 -18 4 -15 9 9 13 -30 43 -51 39 -13 -3 -18 -12 -16 -37 1 -35 17
-53 38 -45 7 3 15 -4 18 -15 3 -12 12 -21 21 -21 9 0 16 -8 16 -19 0 -10 11
-35 25 -55 14 -20 25 -44 25 -52 0 -8 9 -24 20 -36 11 -12 20 -27 19 -32 0 -6
-3 -5 -6 2 -2 6 -13 12 -23 12 -10 0 -20 10 -24 23 -7 28 -79 71 -107 64 -14
-4 -23 1 -31 19 -6 13 -16 24 -22 24 -5 0 -27 12 -48 27 -30 20 -42 23 -50 15
-14 -14 -55 -16 -63 -2 -3 5 -12 7 -20 4 -8 -3 -19 4 -26 18 -7 13 -11 23 -10
23 1 0 0 7 -4 15 -3 9 -15 17 -27 17 -12 1 -37 18 -56 38 -18 19 -38 35 -43
35 -8 0 -29 37 -33 60 -1 3 -8 26 -15 52 -11 40 -11 51 0 64 18 21 71 10 124
-26 31 -21 45 -26 58 -18 13 7 25 4 45 -10 41 -29 69 -35 76 -17 8 21 -18 59
-49 73 -18 9 -25 19 -25 41 0 16 -6 34 -14 40 -23 19 -7 47 41 71 59 29 143
110 144 138 4 70 1 80 -28 95 -24 13 -31 12 -62 -5 -20 -11 -49 -31 -64 -44
-23 -20 -32 -22 -49 -13 -17 9 -31 4 -87 -35 -36 -25 -87 -54 -113 -65 -27
-11 -49 -25 -49 -31 -1 -5 -2 -16 -3 -22 -3 -36 -103 -50 -246 -34 -36 4 -90
8 -120 10 -30 2 -69 7 -87 11 -29 7 -33 5 -38 -18 -4 -14 -15 -33 -26 -43 -10
-9 -19 -23 -19 -29 0 -7 -9 -24 -20 -38 -12 -14 -23 -47 -26 -73 -2 -26 -9
-53 -14 -59 -5 -7 -13 -43 -16 -81 -3 -38 -7 -80 -8 -94 -2 -14 -8 -35 -14
-45 -9 -16 -11 -8 -9 40 2 63 -1 66 -55 56 -5 -1 -19 -44 -23 -71 0 -6 -21
-59 -43 -112 -25 -61 -31 -44 -12 32 10 39 21 94 25 123 11 91 16 106 37 113
14 4 18 12 15 26 -3 11 1 27 9 35 11 12 12 18 3 29 -17 21 -57 17 -64 -6 -6
-18 -8 -18 -21 -5 -18 18 -20 18 -45 5 -13 -8 -19 -21 -19 -45 0 -38 -13 -44
-41 -19 -16 14 -23 14 -78 -6 -71 -26 -71 -25 -80 -157 -1 -6 -24 -28 -51 -48
-28 -20 -48 -40 -46 -43 10 -18 -15 -50 -44 -56 -21 -4 -30 -10 -27 -19 6 -17
-22 -79 -33 -72 -4 2 -4 23 0 45 4 22 5 40 2 40 -3 0 7 14 23 30 33 34 38 55
23 84 -11 20 -11 19 -29 -3 -11 -13 -30 -24 -44 -24 -17 1 -32 -10 -47 -31
-19 -28 -66 -76 -75 -76 -11 0 1 24 32 64 19 26 35 57 35 71 0 22 3 25 24 19
23 -6 30 3 42 59 6 27 -22 31 -45 8 -12 -12 -27 -21 -33 -21 -30 -1 -108 -99
-108 -134 0 -9 -8 -20 -19 -25 -10 -6 -22 -22 -25 -36 -8 -30 -36 -33 -54 -5
-15 25 -30 26 -39 3 -16 -41 -46 -63 -86 -63 -46 0 -107 -26 -107 -46 0 -8 -4
-14 -10 -14 -6 0 -8 20 -6 48 2 26 5 47 6 47 1 0 3 9 5 20 2 11 15 42 29 69
19 37 22 53 15 63 -8 9 -17 10 -29 3 -10 -6 -26 -10 -34 -10 -13 0 -14 5 -4
28 6 15 14 46 18 70 6 35 4 42 -9 42 -24 -1 -53 -29 -84 -82 -33 -57 -34 -71
-4 -92 21 -16 21 -16 1 -11 -32 8 -99 -46 -114 -92 -7 -21 -20 -49 -29 -63 -9
-14 -30 -51 -46 -83 -16 -32 -43 -68 -60 -80 -36 -25 -45 -37 -43 -57 1 -19
-7 -40 -67 -173 -23 -50 -25 -104 -4 -151 18 -41 16 -88 -5 -121 -13 -20 -14
-57 -2 -127 9 -57 -8 -45 -23 15 -13 58 -14 65 -10 120 2 38 -17 65 -34 48
-14 -14 -21 -83 -8 -90 9 -6 8 -15 -3 -36 -10 -19 -12 -35 -5 -52 15 -39 22
-120 11 -127 -10 -6 -30 12 -31 27 0 10 -13 97 -17 122 -3 11 -6 45 -9 75 -3
30 -11 60 -19 68 -11 12 -17 9 -36 -18 -19 -27 -25 -30 -36 -18 -7 7 -15 24
-17 38 -6 40 -33 37 -47 -6 l-13 -37 -18 24 c-11 13 -22 34 -25 47 -5 19 -15
26 -35 24 -13 -2 -89 77 -89 92 0 9 -8 16 -19 16 -17 0 -37 -32 -45 -71 -2 -8
-7 -25 -13 -38 -5 -14 -9 -71 -8 -128 2 -99 1 -102 -13 -71 -20 46 -24 203 -6
246 10 24 11 39 4 52 -14 27 -12 50 5 50 25 0 42 52 44 133 2 63 -2 85 -18
113 -13 22 -19 44 -15 59 3 13 1 31 -4 41 -9 15 -11 15 -26 -8 -31 -47 -40
-148 -20 -216 8 -25 14 -57 14 -71 -1 -23 -2 -24 -11 -8 -6 9 -21 46 -34 82
-36 99 -72 128 -61 48 18 -120 18 -170 2 -176 -8 -3 -18 -2 -22 4 -10 17 -18
178 -11 239 3 27 -2 41 -21 62 -25 27 -25 27 -9 89 17 68 11 101 -22 119 -16
8 -22 7 -31 -9 -5 -11 -10 -27 -10 -36 0 -10 -13 -34 -29 -54 -20 -25 -31 -51
-33 -81 -2 -24 -8 -45 -13 -47 -15 -4 -42 44 -50 90 -7 36 -9 38 -36 32 -18
-4 -29 -2 -29 4 0 18 -45 12 -68 -9 -28 -26 -41 -77 -33 -126 5 -26 3 -46 -6
-60 -12 -19 -12 -24 1 -37 9 -8 20 -17 26 -19 24 -8 36 -135 19 -196 -16 -57
-17 -59 -8 -100 8 -38 1 -74 -13 -66 -5 3 -8 54 -8 112 1 59 -1 116 -3 127 -3
11 -6 27 -6 35 -2 26 -17 41 -34 34 -19 -7 -33 -40 -36 -85 -1 -15 -5 -19 -13
-12 -7 5 -26 10 -43 11 -28 2 -38 10 -36 29 1 5 6 9 11 9 6 1 15 2 20 3 14 2
12 37 -3 49 -25 21 -62 24 -79 5 -9 -10 -17 -21 -17 -25 -1 -5 -1 -9 -2 -10
-11 -37 -11 -58 -5 -233 3 -82 2 -156 -2 -163 -6 -8 -15 1 -30 29 -23 43 -28
69 -13 69 13 0 20 25 12 39 -4 7 -21 13 -37 15 -21 2 -30 9 -32 25 -4 22 -3
22 23 5 21 -14 28 -15 35 -4 11 18 8 30 -18 72 -18 28 -22 45 -17 71 5 25 2
38 -10 50 -13 14 -14 17 -2 17 18 0 45 30 48 55 3 28 -18 75 -33 75 -32 -1
-42 -19 -43 -77 0 -32 -5 -69 -9 -83 -5 -14 -9 -33 -10 -43 -1 -9 -4 -17 -8
-17 -5 0 -12 0 -18 0 -15 0 -12 31 5 64 19 35 19 59 1 94 -8 15 -13 42 -12 60
1 18 -1 32 -6 32 -4 0 -8 7 -8 15 0 8 -5 15 -11 15 -6 0 -24 14 -40 31 -24 25
-30 28 -35 15 -3 -9 -3 -24 1 -33 13 -31 42 -177 40 -201 -1 -12 1 -22 4 -22
3 0 7 -30 7 -66 1 -36 6 -70 13 -77 6 -6 11 -19 11 -28 0 -9 7 -22 15 -29 8
-6 14 -15 13 -18 -4 -13 103 -220 122 -237 22 -20 40 -12 40 18 0 20 1 20 17
4 14 -14 15 -21 7 -35 -9 -14 -6 -24 17 -53 15 -19 33 -48 41 -65 7 -16 22
-42 34 -59 12 -17 21 -43 20 -60 -1 -16 2 -41 7 -54 5 -16 4 -27 -4 -31 -37
-24 84 -148 194 -199 42 -19 80 -47 133 -99 7 -7 59 -35 115 -63 73 -36 99
-54 95 -64 -3 -8 3 -23 12 -32 26 -26 117 -152 144 -199 32 -57 68 -103 103
-133 97 -85 181 -183 210 -246 12 -27 42 -73 66 -102 85 -100 134 -164 132
-172 -1 -5 7 -7 17 -4 15 4 39 -13 92 -66 40 -39 76 -72 80 -72 13 -2 22 -5
53 -18 53 -21 59 -22 105 -28 67 -8 111 -27 197 -81 117 -75 166 -86 415 -97
138 -6 171 -9 187 -19 5 -3 64 -8 132 -11 353 -14 423 -20 504 -39 18 -5 99
-16 160 -23 109 -11 188 -8 240 11 28 10 82 29 120 43 39 14 79 28 90 33 32
13 75 22 140 26 33 3 101 18 150 34 50 17 131 41 180 56 50 14 95 26 100 28
32 10 93 41 120 62 18 13 37 24 43 24 17 0 117 101 148 150 16 25 46 68 66 96
21 28 38 56 38 62 0 7 4 12 8 12 6 0 21 31 30 62 4 13 41 100 61 143 11 22 27
58 36 80 26 60 85 242 85 262 0 10 6 29 13 43 9 17 14 69 15 150 1 69 4 139 6
155 3 17 0 45 -6 63 -7 25 -6 40 5 65 8 18 17 46 20 63 5 35 20 65 51 107 18
25 21 43 21 130 0 82 4 107 18 129 11 15 27 58 37 95 36 134 70 206 70 151 0
-33 17 -78 29 -78 15 0 22 31 27 110 5 95 17 205 29 268 2 9 4 23 4 30 1 7 5
11 10 7 5 -3 12 -1 15 4 5 8 12 374 20 1076 3 218 7 274 31 380 1 6 5 21 8 35
7 26 13 59 23 120 9 59 53 240 63 258 9 17 14 46 26 147 9 73 15 108 41 255
19 108 28 552 12 583 -5 10 -11 26 -13 35 -3 18 -60 175 -98 272 -12 30 -22
60 -24 65 -1 6 -16 46 -32 90 -62 160 -93 285 -97 385 -5 111 -13 162 -27 171
-30 20 -40 169 -11 169 18 0 18 46 0 53 -20 8 -34 160 -21 224 5 24 -1 51 -23
105 -16 40 -29 84 -27 98 1 14 -4 35 -12 48 -8 13 -14 38 -14 55 0 38 -38 148
-55 162 -7 6 -29 37 -50 70 -21 33 -43 65 -50 70 -6 6 -14 27 -17 48 -6 38
-37 95 -90 164 -15 20 -26 41 -24 47 5 14 -23 35 -45 36 -10 0 -18 5 -18 11 0
6 -11 25 -25 43 -14 18 -30 48 -37 66 -13 39 -38 71 -49 64 -9 -5 -39 47 -39
67 0 21 -71 99 -95 105 -14 3 -35 22 -47 42 -25 41 -93 112 -107 112 -5 0 -22
15 -37 32 -15 18 -40 41 -56 50 -27 17 -28 19 -13 42 13 20 14 28 4 45 -7 11
-23 22 -36 26 -30 7 -29 33 2 47 14 6 25 17 25 24 0 19 -65 84 -84 84 -9 0
-16 5 -16 11 0 7 -8 19 -18 28 -10 9 -29 32 -42 51 -14 19 -33 42 -42 50 -10
8 -26 31 -36 50 -11 22 -24 35 -37 35 -11 0 -25 11 -32 25 -6 13 -20 27 -30
31 -10 3 -19 11 -19 18 -1 6 -2 16 -3 21 0 6 -9 10 -18 10 -10 0 -45 16 -78
35 -33 20 -84 46 -112 60 -29 13 -53 29 -53 36 0 7 8 6 24 -5 31 -20 58 -11
54 18 -2 13 -18 29 -43 41 -22 11 -51 27 -65 35 -14 8 -35 16 -48 17 -12 2
-32 13 -43 24 -15 15 -24 18 -32 10 -7 -7 -15 -3 -27 16 -11 19 -30 31 -61 38
-32 8 -49 19 -64 43 -13 20 -25 29 -35 26 -20 -8 -68 -15 -52 -8 18 8 15 41
-5 48 -24 10 -37 -8 -24 -33 11 -20 10 -20 -13 -9 -14 6 -23 14 -21 19 4 6
-76 98 -86 99 -129 13 -287 69 -419 147 -30 18 -86 44 -125 58 -38 14 -88 34
-110 44 -66 30 -256 87 -320 96 -22 3 -152 7 -290 9 -217 3 -258 2 -310 -14z
m985 -305 c0 -8 -4 -15 -10 -15 -5 0 -10 7 -10 15 0 8 5 15 10 15 6 0 10 -7
10 -15z m-190 -705 c0 -5 -7 -10 -15 -10 -8 0 -15 5 -15 10 0 6 7 10 15 10 8
0 15 -4 15 -10z m-278 -91 c-4 -37 -6 -40 -20 -25 -13 12 -13 20 -4 41 17 37
28 30 24 -16z m-336 2 c-8 -12 -55 -20 -61 -11 -6 10 7 15 42 18 13 1 22 -2
19 -7z m-588 -49 c4 -14 -34 -16 -42 -3 -6 10 13 21 28 17 6 -1 12 -8 14 -14z
m422 -1 c0 -13 -26 -32 -33 -24 -8 7 11 33 24 33 5 0 9 -4 9 -9z m2334 -66
c-4 -8 -10 -13 -15 -10 -4 3 -6 12 -3 20 4 8 10 13 15 10 4 -3 6 -12 3 -20z
m-2144 -50 c0 -8 -4 -15 -10 -15 -5 0 -10 7 -10 15 0 8 5 15 10 15 6 0 10 -7
10 -15z m2261 -18 c-1 -12 -15 -9 -19 4 -3 6 1 10 8 8 6 -3 11 -8 11 -12z
m-2861 -9 c0 -23 -15 -37 -53 -53 -20 -8 -38 -20 -38 -25 -1 -6 -3 -14 -4 -20
-1 -5 -3 -12 -4 -15 0 -3 -11 3 -23 15 -20 18 -58 23 -73 8 -3 -3 -8 -16 -10
-28 -6 -33 -8 -33 -45 0 -38 34 -50 34 -67 -1 -20 -42 -61 -79 -85 -79 -13 0
-45 -18 -72 -40 -26 -22 -50 -40 -52 -40 -2 0 -4 9 -4 19 0 20 9 32 57 68 15
12 39 31 53 43 13 12 41 31 62 42 21 12 38 26 38 32 0 6 9 22 19 35 l19 24 11
-21 c9 -17 21 -22 54 -22 24 0 48 5 53 10 6 6 31 13 55 16 24 2 55 13 69 24
30 22 40 24 40 8z m2970 -9 c0 -14 -17 -10 -23 5 -4 10 -1 13 9 9 7 -3 14 -9
14 -14z m-2899 -48 c-19 -19 -21 -19 -21 -3 0 24 21 45 33 33 5 -5 0 -18 -12
-30z m3016 -87 c-4 -4 -14 1 -22 12 -22 29 -18 41 7 17 12 -13 19 -26 15 -29z
m-3875 -96 c-7 -7 -12 -8 -12 -2 0 14 12 26 19 19 2 -3 -1 -11 -7 -17z m-87
-197 c-3 -12 -11 -19 -16 -16 -5 4 -5 14 2 26 13 26 23 18 14 -10z m-125 -46
c-7 -9 -15 -13 -17 -11 -7 7 7 26 19 26 6 0 6 -6 -2 -15z m-227 -85 c14 -11
30 -20 36 -20 6 0 11 -4 11 -10 0 -5 -5 -10 -10 -10 -6 0 -20 -20 -32 -44 -26
-55 -51 -63 -87 -30 -14 14 -21 24 -16 22 6 -1 30 11 55 26 l44 29 -34 28
c-30 25 -31 29 -13 29 11 0 32 -9 46 -20z m145 -35 c-6 -14 -15 -22 -20 -17
-12 12 1 42 18 42 11 0 11 -5 2 -25z m-365 -201 c-4 -11 -9 -12 -19 -3 -17 14
-9 30 11 23 7 -3 11 -12 8 -20z m-55 -14 c7 -12 17 -18 22 -15 6 3 10 3 10 -2
0 -4 -17 -17 -37 -28 -43 -23 -57 -55 -24 -55 12 0 21 -4 21 -9 0 -10 -58 -26
-67 -18 -7 8 -70 -20 -92 -41 -65 -61 -179 -150 -218 -170 -12 -7 -26 -27 -33
-46 -10 -31 -36 -54 -48 -42 -13 14 89 126 116 126 6 0 12 9 12 20 0 10 10 25
23 31 12 6 33 22 47 35 14 12 42 30 63 39 20 8 37 19 37 23 0 4 22 22 49 41
28 18 57 48 66 67 8 18 20 36 25 39 6 4 8 11 5 16 -4 5 -2 9 2 9 5 0 14 -9 21
-20z m1704 -432 c-9 -9 -15 -9 -24 0 -9 9 -7 12 12 12 19 0 21 -3 12 -12z
m-2892 -25 c0 -5 -4 -14 -9 -21 -6 -10 -10 -9 -14 7 -3 14 0 21 9 21 8 0 14
-3 14 -7z m4175 -7 c66 -4 201 -9 300 -11 190 -5 240 -10 284 -26 14 -6 26
-10 26 -9 0 1 16 -1 35 -4 19 -4 44 -8 55 -9 11 -1 25 -5 30 -8 13 -8 51 -17
101 -24 21 -4 64 -15 94 -25 30 -11 66 -21 80 -24 14 -3 41 -10 60 -16 19 -6
49 -14 65 -16 17 -3 46 -15 65 -26 19 -11 51 -23 70 -25 19 -3 61 -18 93 -34
31 -16 57 -27 57 -24 0 8 127 -62 148 -82 41 -39 131 -105 145 -107 16 -2 92
-78 135 -135 19 -24 52 -61 73 -83 63 -64 104 -119 141 -188 19 -36 54 -86 79
-111 26 -25 48 -56 51 -70 4 -13 13 -49 22 -80 8 -31 18 -78 22 -105 8 -65 10
-72 26 -130 13 -44 14 -56 9 -81 -2 -11 -41 29 -41 43 0 19 -50 51 -90 59 -22
4 -52 0 -79 -10 -24 -8 -46 -13 -49 -10 -3 3 0 5 6 5 7 0 12 7 12 15 0 17 -16
20 -25 5 -11 -17 -22 -11 -50 30 -15 22 -34 40 -41 40 -19 0 -84 32 -84 41 0
4 -14 4 -31 -1 -33 -10 -41 -8 -74 20 -20 17 -29 18 -55 7 -35 -14 -167 -58
-185 -62 -11 -2 -50 -7 -87 -9 -94 -7 -196 -34 -228 -59 -55 -44 -110 -54 -90
-16 6 10 8 20 5 20 -17 4 -25 7 -27 8 -2 2 -20 4 -40 7 -35 4 -37 3 -35 -22 2
-22 -4 -28 -50 -45 -40 -15 -55 -27 -68 -55 -23 -48 -17 -80 14 -76 l25 2 -23
-24 c-15 -15 -21 -31 -17 -41 5 -15 -3 -16 -79 -12 -47 3 -89 8 -94 11 -7 5
-52 9 -201 20 -54 4 -109 26 -121 47 -8 15 -5 27 11 54 l21 35 -37 17 c-21 10
-46 26 -56 36 -10 9 -24 17 -32 17 -16 0 -29 27 -20 41 3 5 -3 9 -13 9 -27 0
-43 20 -43 55 0 37 -9 51 -35 57 -21 4 -21 6 -11 51 6 24 3 29 -24 38 -16 6
-30 14 -30 18 0 13 -71 38 -112 40 -10 1 -26 10 -36 22 -24 25 -64 18 -91 -17
-10 -13 -24 -24 -30 -24 -13 0 -13 -2 -2 36 8 28 6 33 -15 44 -15 9 -28 10
-36 4 -22 -17 -65 -16 -98 1 -58 30 -84 -10 -35 -53 14 -12 25 -29 25 -39 0
-16 -8 -16 -9 0 0 4 -10 17 -22 30 -11 12 -29 41 -39 63 -32 69 -67 64 -73 -9
-4 -49 -11 -53 -45 -28 -17 12 -34 21 -40 21 -5 0 -20 8 -33 18 -29 23 -109
44 -124 33 -5 -5 -31 -11 -56 -14 -25 -3 -59 -12 -75 -18 -16 -7 -33 -13 -39
-15 -5 -1 -24 -7 -41 -12 -17 -6 -37 -7 -43 -2 -7 4 -35 8 -63 9 -27 1 -59 6
-69 12 -11 5 -24 7 -29 4 -5 -3 -27 -7 -47 -9 -49 -4 -83 -15 -83 -27 0 -19
-35 -8 -55 16 l-20 26 -40 -20 c-44 -21 -107 -28 -355 -36 -335 -12 -341 -13
-359 -68 -12 -37 -13 -39 -37 -172 -9 -49 -23 -95 -30 -102 -7 -7 -14 -18 -16
-24 -2 -6 -20 -11 -41 -11 -37 0 -49 -9 -54 -40 -3 -19 5 -21 109 -20 32 1 60
-3 63 -9 4 -5 -5 -9 -18 -9 -27 0 -123 -48 -176 -89 -19 -14 -32 -21 -29 -16
8 13 -1 27 -27 41 -55 30 -70 41 -85 58 -12 14 -31 19 -76 20 -100 1 -180 -19
-260 -66 -30 -18 -131 -56 -168 -63 -11 -3 -22 -8 -25 -13 -8 -11 -46 -32 -60
-32 -22 0 -10 27 24 58 43 37 70 95 56 120 -7 12 -2 32 21 74 17 32 35 58 41
58 5 0 35 15 66 32 31 18 62 33 70 35 30 4 66 41 72 74 8 37 49 78 142 141 32
22 63 50 69 63 6 13 30 33 55 46 25 13 50 30 56 39 7 9 39 36 72 60 33 23 83
60 111 81 28 22 58 39 67 39 10 0 17 4 17 8 0 16 116 129 150 147 19 10 59 33
87 52 29 19 58 36 65 37 7 1 34 12 60 24 26 12 50 22 54 22 4 0 29 14 55 31
55 35 321 150 419 181 36 11 70 24 75 28 12 9 219 78 253 85 12 2 26 6 30 9 5
3 19 7 33 9 13 3 44 10 69 17 53 14 111 24 210 35 25 2 63 7 85 9 22 3 54 7
70 9 57 10 150 20 158 19 4 -1 7 2 7 6 0 8 7 8 205 -2z m1825 -48 c0 -19 -2
-20 -10 -8 -13 19 -13 30 0 30 6 0 10 -10 10 -22z m-3600 -33 c0 -16 -31 -63
-45 -68 -21 -9 -19 9 7 43 20 27 38 39 38 25z m-1780 -10 c0 -3 -17 -24 -37
-46 -21 -23 -39 -50 -39 -60 -1 -11 -2 -24 -3 -29 0 -6 -20 -19 -43 -30 -24
-11 -53 -27 -65 -36 -22 -15 -23 -15 -23 2 0 30 16 47 45 51 42 6 75 32 75 60
0 15 14 38 35 59 32 30 55 43 55 29z m-309 -317 c-5 -13 -8 -27 -8 -33 0 -5
-15 -19 -34 -29 l-34 -20 25 30 c14 16 30 32 35 36 6 4 6 8 1 8 -5 0 -3 7 4
15 17 21 21 19 11 -7z m-122 -150 c-16 -32 -40 -58 -53 -58 -8 0 -8 3 -1 8 6
4 21 22 34 40 26 37 37 42 20 10z m-96 -153 c4 -8 2 -17 -3 -20 -6 -4 -10 3
-10 14 0 25 6 27 13 6z m-179 -271 c6 -17 0 -34 -13 -34 -4 0 -7 11 -7 25 0
28 11 33 20 9z m3152 -70 c17 -14 17 -15 1 -10 -10 3 -23 6 -28 6 -5 0 -9 5
-9 10 0 14 13 12 36 -6z m162 -39 c3 -3 -4 -4 -16 -2 -12 2 -24 6 -28 10 -4 3
4 4 16 2 12 -2 25 -7 28 -10z m212 -29 c46 -5 130 -28 135 -36 3 -4 -12 -4
-33 0 -20 5 -57 11 -82 14 -25 3 -56 8 -70 11 -14 3 -36 7 -49 10 -13 2 -26 7
-29 10 -5 5 45 1 128 -9z m-144 -46 c5 -5 32 -12 59 -15 134 -14 205 -31 205
-46 0 -8 -13 -9 -37 -4 -63 13 -114 20 -198 30 -27 3 -66 8 -85 11 l-35 7 30
13 c37 16 48 17 61 4z m3009 -269 c7 -12 -12 -24 -25 -16 -11 7 -4 25 10 25 5
0 11 -4 15 -9z m-2165 -32 c0 -6 -4 -7 -10 -4 -5 3 -10 11 -10 16 0 6 5 7 10
4 6 -3 10 -11 10 -16z m-4080 -102 c0 -16 -3 -18 -12 -9 -17 17 -19 42 -2 35
8 -3 14 -15 14 -26z m2720 -154 c-1 -23 -20 -34 -56 -31 l-39 3 35 17 c37 19
60 23 60 11z m988 -42 c3 -8 -1 -12 -9 -9 -7 2 -15 10 -17 17 -3 8 1 12 9 9 7
-2 15 -10 17 -17z m-1108 -27 c0 -7 -20 -32 -44 -54 -24 -22 -46 -53 -49 -68
-3 -15 -13 -36 -21 -47 -14 -17 -17 -18 -26 -5 -6 8 -9 33 -8 55 3 33 7 40 28
45 14 3 30 16 36 28 28 57 84 87 84 46z m4264 -145 c3 -13 6 -24 7 -24 5 0 6
-361 0 -370 -6 -11 -7 -17 -17 -90 -3 -27 -11 -56 -16 -62 -6 -7 -8 -13 -5
-13 4 0 -1 -19 -9 -42 -30 -83 -38 -152 -20 -167 11 -9 11 -20 0 -62 -16 -62
-47 -93 -76 -78 -16 8 -26 4 -59 -26 -44 -39 -142 -105 -158 -105 -5 0 -11 -3
-13 -7 -4 -11 -128 -70 -163 -78 -56 -13 -70 -15 -140 -21 -156 -12 -298 -2
-359 24 -25 12 -46 18 -46 15 0 -2 -20 7 -44 21 -25 14 -50 26 -56 26 -35 0
-204 172 -250 255 -12 22 -31 52 -41 67 -11 14 -19 29 -19 32 0 10 -43 100
-50 106 -9 7 -30 70 -23 70 3 0 0 6 -6 14 -22 26 -57 186 -41 186 7 0 17 -27
25 -65 6 -27 48 -115 56 -116 5 -1 15 -2 22 -3 6 0 12 -6 12 -13 0 -24 21 -36
44 -23 19 10 33 5 94 -28 54 -29 85 -39 124 -41 29 -1 62 -4 75 -7 13 -2 46
-7 73 -10 28 -4 53 -8 56 -10 16 -9 156 -14 169 -5 12 8 11 14 -8 34 -17 18
-20 26 -10 30 7 2 20 1 28 -3 9 -5 39 -13 68 -18 49 -9 52 -8 52 12 0 12 -12
30 -27 41 -14 11 -42 32 -61 48 -19 15 -43 27 -52 27 -10 0 -23 7 -30 15 -16
19 -26 19 -58 -3 -26 -17 -94 -24 -107 -10 -4 4 -13 4 -20 2 -7 -3 -16 -1 -20
5 -3 6 -14 11 -24 11 -9 0 -25 6 -35 13 -17 13 -17 15 5 38 21 23 33 26 104
27 87 2 196 12 206 18 15 9 44 -27 46 -58 5 -95 14 -112 66 -122 16 -3 34 -9
40 -14 7 -5 27 -13 44 -17 18 -3 35 -10 38 -15 3 -5 12 -7 20 -3 22 8 18 51
-5 65 -27 17 -25 25 8 25 15 -1 33 1 41 4 18 5 19 -9 25 -281 7 -319 7 -320
89 -277 86 44 142 97 206 192 136 203 200 409 206 668 2 75 0 160 -4 187 -4
27 -6 52 -3 55 8 7 21 -17 26 -46z m-3534 19 c0 -16 -3 -19 -11 -11 -6 6 -8
16 -5 22 11 17 16 13 16 -11z m1905 -100 c-4 -125 -4 -122 -12 -114 -19 18 -8
206 11 206 3 0 3 -42 1 -92z m-1954 -171 c-1 -12 -15 -9 -19 4 -3 6 1 10 8 8
6 -3 11 -8 11 -12z m1972 -17 c3 -11 0 -23 -6 -27 -7 -3 -9 -3 -5 1 4 5 3 19
-3 33 -5 13 -5 22 0 19 5 -3 11 -15 14 -26z m1111 -89 c-4 -20 -6 -42 -5 -48
1 -7 -2 -13 -8 -13 -10 0 -6 78 6 120 l7 25 4 -24 c2 -13 0 -40 -4 -60z
m-2226 -1867 c-14 -31 -40 -32 -36 -1 5 36 18 50 33 37 11 -9 11 -17 3 -36z
m2600 -54 c1 -22 -2 -40 -7 -40 -10 0 -18 45 -13 79 5 35 18 9 20 -39z m-866
-149 c11 -30 17 -58 15 -64 -6 -19 -49 53 -52 89 -5 52 16 38 37 -25z m853
-13 c-1 -79 -16 -100 -22 -29 -2 23 -8 51 -13 61 -8 15 -6 21 7 29 10 6 20 11
23 11 3 0 5 -33 5 -72z m-1245 31 c0 -5 -4 -9 -10 -9 -5 0 -10 7 -10 16 0 8 5
12 10 9 6 -3 10 -10 10 -16z m-2266 -43 c-3 -8 -14 -16 -25 -19 -16 -4 -17 -2
-8 14 11 22 41 26 33 5z m2726 -118 c0 -10 -4 -18 -10 -18 -5 0 -10 4 -10 9 0
5 -3 24 -6 42 l-5 34 15 -25 c8 -14 15 -33 16 -42z m-920 -93 c0 6 88 -33 103
-45 6 -6 28 -24 47 -40 48 -41 137 -87 185 -96 22 -4 72 -30 115 -59 76 -53
79 -55 104 -55 24 0 55 -62 71 -141 12 -58 21 -79 43 -96 l27 -23 -40 0 c-40
-1 -75 -18 -75 -38 0 -6 13 -19 29 -28 28 -16 29 -19 17 -53 -15 -44 -11 -99
11 -157 3 -9 2 -15 -3 -12 -5 3 -19 2 -31 -3 -51 -19 -13 -103 94 -207 63 -62
84 -90 97 -129 9 -28 26 -59 36 -68 28 -25 25 -36 -6 -25 -32 13 -34 13 -34
-3 0 -7 14 -26 30 -42 17 -16 30 -34 30 -41 0 -25 29 -38 65 -27 27 9 38 8 52
-3 17 -14 17 -15 -4 -30 -29 -21 -29 -24 2 -60 26 -30 32 -54 15 -54 -5 0 -10
5 -10 10 0 6 -4 10 -9 10 -5 0 -23 14 -41 30 -18 17 -36 30 -41 30 -5 0 -16
-14 -24 -31 -13 -25 -19 -28 -31 -18 -8 6 -12 14 -10 16 8 9 -29 43 -46 43
-32 0 -20 -35 30 -87 36 -37 46 -55 41 -69 -8 -23 -2 -39 25 -78 18 -27 18
-29 2 -23 -10 4 -29 10 -42 13 -15 4 -24 13 -24 25 0 23 -23 34 -47 23 -39
-17 -61 -2 -86 58 -8 19 -27 45 -43 57 l-28 22 -9 -23 c-9 -23 -4 -104 6 -114
3 -3 12 -6 20 -8 40 -6 45 -23 46 -162 2 -102 -1 -134 -10 -128 -8 5 -10 35
-7 99 5 97 -4 137 -36 164 -26 21 -44 61 -51 111 -12 91 -15 100 -43 106 -15
4 -39 15 -54 25 -29 21 -47 24 -49 9 -1 -5 -3 -14 -4 -20 -1 -5 -3 -14 -4 -20
-2 -15 -21 -12 -21 4 0 23 -39 26 -54 4 -13 -18 -16 -19 -38 -4 -13 8 -28 12
-34 8 -26 -16 -34 -109 -13 -157 7 -16 13 -32 14 -35 0 -3 7 -16 14 -28 7 -13
10 -27 6 -30 -4 -4 -11 1 -17 11 -5 10 -23 30 -39 45 -17 14 -39 41 -50 59
-12 19 -29 33 -40 33 -23 0 -34 36 -20 72 7 20 5 32 -9 56 -16 26 -23 30 -42
23 -17 -6 -23 -17 -26 -47 -1 -23 -10 -45 -21 -54 -40 -33 -32 -64 18 -72 19
-2 27 -12 33 -37 11 -42 3 -51 -22 -23 -12 12 -27 23 -35 23 -36 3 -65 19 -65
35 0 8 -6 11 -15 8 -16 -7 -15 -28 3 -62 7 -12 10 -22 8 -22 -3 0 4 -21 15
-46 13 -31 17 -58 13 -78 -3 -20 2 -55 15 -94 39 -115 15 -135 -33 -28 -13 28
-26 64 -30 79 -9 39 -30 29 -34 -17 -3 -31 -6 -36 -20 -31 -33 14 -46 10 -60
-19 -14 -28 -15 -28 -28 -11 -8 10 -14 27 -14 37 0 10 -9 27 -19 37 -19 19
-33 51 -36 81 0 8 -9 27 -19 42 -14 22 -22 26 -36 18 -15 -8 -18 -21 -16 -69
2 -33 -1 -66 -5 -73 -9 -14 -11 -10 -14 32 -4 44 -13 88 -20 100 -4 6 3 21 14
32 17 16 20 23 10 34 -23 28 -93 5 -75 -25 3 -5 2 -21 -4 -36 l-10 -27 -29 31
c-30 32 -61 41 -61 19 0 -34 75 -158 96 -158 17 0 134 -112 134 -128 0 -18
-59 14 -68 36 -10 26 -42 51 -102 78 -75 35 -90 50 -84 83 4 18 0 32 -11 41
-15 12 -19 12 -31 -5 -20 -27 -17 -84 6 -130 15 -30 17 -41 7 -47 -26 -16 -36
-5 -43 45 -3 18 -12 55 -21 82 -24 77 -61 102 -89 60 -11 -17 -11 -25 1 -48 7
-15 12 -27 9 -27 -2 0 2 -16 10 -35 l15 -34 -40 26 c-38 25 -49 46 -30 57 5 4
7 29 4 57 -3 28 0 63 7 79 6 16 9 38 5 50 -10 32 -57 70 -86 70 -15 0 -32 7
-39 15 -17 21 -7 29 18 16 26 -14 92 -14 92 -1 0 6 -12 22 -26 37 -21 21 -32
24 -60 20 -31 -5 -34 -4 -34 19 0 23 -31 64 -48 64 -15 0 -43 -37 -45 -60 -2
-31 -28 -42 -62 -24 -15 8 -29 13 -31 12 -1 -2 -5 -25 -9 -53 -11 -79 -7 -166
10 -202 14 -29 14 -36 0 -69 -14 -33 -38 -43 -41 -16 -1 7 -2 16 -3 21 -2 21
-57 69 -81 73 -21 2 -25 8 -23 33 10 131 11 129 -23 275 -3 13 -18 36 -35 51
-16 14 -29 32 -29 40 0 24 -16 40 -33 33 -14 -5 -16 -18 -12 -78 3 -39 8 -82
11 -96 3 -14 8 -38 11 -55 3 -16 13 -46 24 -67 24 -46 24 -48 0 -48 -36 0 -34
-21 8 -103 43 -86 50 -117 27 -117 -8 0 -21 8 -28 18 -27 36 -45 44 -62 27 -8
-9 -13 -22 -10 -30 10 -26 -12 -16 -24 10 -16 35 -15 43 7 50 23 7 31 44 21
93 -5 20 -11 55 -14 77 -13 90 -17 99 -74 151 -32 28 -63 63 -71 77 -13 25
-63 51 -75 40 -6 -6 -10 13 -7 30 2 13 -30 20 -42 8 -14 -14 -41 -15 -32 -1
14 23 -26 8 -41 -16 -16 -23 -16 -28 -1 -59 9 -18 13 -36 9 -40 -4 -4 -7 -10
-8 -13 0 -4 -8 -24 -17 -44 -10 -21 -17 -44 -17 -52 0 -8 -4 -17 -9 -21 -15
-9 -23 30 -12 58 10 25 7 102 -5 140 -5 16 2 27 27 48 31 25 33 31 35 95 3 94
13 184 21 198 12 17 11 29 -4 54 -14 22 -5 30 13 12 15 -15 64 36 64 66 0 17
-7 25 -24 30 -31 7 -44 -1 -58 -34 l-11 -27 -10 34 c-9 29 -8 36 7 45 47 29
49 32 42 69 -8 40 -16 45 -40 22 -16 -16 -46 -20 -46 -6 0 13 70 101 80 101 6
0 10 6 10 14 0 8 5 16 10 18 12 4 15 31 7 66 -3 12 -2 22 3 22 19 0 40 33 40
63 0 24 3 28 12 19 7 -7 19 -12 27 -12 26 0 118 62 135 91 9 16 29 32 44 35
15 4 34 13 42 20 8 7 40 16 70 20 30 4 60 8 65 9 6 1 33 5 60 10 28 4 68 18
90 31 22 12 51 25 65 28 50 10 87 24 167 65 75 37 88 41 137 36 30 -3 72 -11
93 -19 32 -11 45 -11 83 0 59 17 124 25 245 30 108 3 111 4 200 32 40 13 68
17 87 11 15 -4 28 -6 28 -4z m-3140 -82 c0 -33 0 -34 26 -75 37 -58 29 -65
-24 -20 -32 28 -33 31 -30 91 2 53 5 59 15 44 7 -9 13 -27 13 -40z m1800 -33
c0 -5 -4 -10 -9 -10 -6 0 -13 5 -16 10 -3 6 1 10 9 10 9 0 16 -4 16 -10z
m2398 -218 c22 -30 32 -73 35 -139 3 -76 -14 -51 -42 60 -15 59 -24 107 -20
107 4 0 17 -12 27 -28z m-3893 -11 c2 -12 0 -19 -6 -16 -5 4 -9 16 -9 27 0 26
9 19 15 -11z m976 -12 c-6 -16 -10 -18 -10 -7 -1 22 12 55 16 42 2 -6 -1 -22
-6 -35z m-1076 -8 c3 -9 7 -52 10 -95 3 -42 10 -87 17 -99 17 -31 47 -121 42
-126 -2 -2 -4 1 -4 7 0 7 -6 12 -14 12 -8 0 -19 14 -25 30 -5 17 -8 30 -5 30
3 0 0 8 -5 18 -5 10 -12 52 -16 92 -4 46 -14 88 -26 108 -23 40 -23 37 1 39
10 1 22 -6 25 -16z m938 -26 c-1 -15 -14 -43 -30 -63 -35 -46 -34 -43 -35
-192 0 -69 -4 -132 -8 -140 -5 -9 -2 -29 5 -48 8 -17 11 -32 7 -32 -4 -1 4
-10 17 -21 17 -13 26 -16 31 -9 4 6 6 80 5 163 -2 167 7 229 30 206 8 -8 17
-32 21 -54 8 -54 8 -53 59 -53 32 0 48 5 54 16 11 21 -2 57 -23 65 -9 4 -16
15 -16 26 0 11 -4 23 -10 26 -5 3 -10 14 -10 23 0 10 3 13 8 7 14 -19 75 -58
94 -59 10 -1 19 -4 19 -9 4 -24 -13 -67 -40 -101 -17 -21 -33 -46 -36 -57 -4
-12 -16 -19 -31 -19 -30 0 -45 -32 -49 -108 -3 -43 0 -56 17 -71 11 -11 18
-27 16 -38 -3 -14 -8 -11 -22 16 -29 55 -42 23 -50 -134 -3 -44 -9 -93 -15
-108 -13 -32 2 -172 21 -194 9 -11 9 -16 -3 -24 -8 -5 -19 -9 -25 -9 -22 0
-40 -33 -43 -76 -1 -15 -47 -64 -61 -64 -16 0 -12 18 16 60 20 30 24 46 19 69
-5 23 -3 33 9 37 9 3 16 14 16 24 0 23 -38 70 -56 70 -8 0 -12 5 -9 10 3 6 14
10 23 10 33 0 44 17 48 76 2 33 8 83 12 112 10 59 1 73 -25 42 -10 -11 -20
-20 -23 -20 -3 0 -6 29 -5 64 0 49 -4 69 -19 85 -14 15 -16 24 -8 34 17 20 8
254 -11 299 -15 37 -15 37 16 61 26 20 31 31 33 68 2 62 2 62 24 56 11 -3 20
-1 20 5 0 5 6 8 13 5 6 -2 11 -16 10 -32z m-643 -15 c0 -5 9 -19 20 -30 11
-11 20 -30 20 -42 -1 -20 -5 -18 -40 21 -45 49 -49 61 -20 61 11 0 20 -4 20
-10z m248 -168 c2 -7 -2 -10 -12 -6 -9 3 -16 11 -16 16 0 13 23 5 28 -10z
m3166 -8 c10 -25 -1 -29 -14 -5 -6 12 -7 21 -1 21 5 0 12 -7 15 -16z m-4146
-36 c6 18 32 1 48 -30 l16 -30 -23 16 c-36 25 -49 20 -49 -17 0 -37 12 -57 75
-122 24 -26 47 -55 50 -66 4 -11 17 -31 31 -44 13 -13 24 -30 24 -37 0 -6 23
-33 50 -59 51 -48 59 -66 38 -87 -16 -16 -28 -15 -28 3 0 17 -27 63 -46 80
-23 20 -91 122 -112 167 -14 31 -36 57 -62 74 -22 15 -40 32 -40 38 0 7 -9 30
-21 51 -34 67 -33 75 9 63 25 -7 37 -7 40 0z m4231 -93 c23 -44 26 -55 11 -55
-10 0 -70 111 -70 131 0 15 32 -26 59 -76z m-3212 -67 c10 -13 9 -99 -1 -125
-3 -8 -10 -11 -16 -8 -6 4 -8 10 -6 14 3 4 0 26 -5 50 -14 62 3 102 28 69z
m3304 -54 c20 -25 4 -24 -26 1 -26 21 -27 23 -8 18 12 -3 28 -12 34 -19z m91
-81 c17 -15 25 -43 12 -43 -11 0 -49 23 -56 34 -20 30 14 37 44 9z m-4058 -45
c16 -23 22 -88 9 -88 -11 0 -53 92 -47 102 9 14 22 9 38 -14z m324 -33 c16
-34 15 -40 -2 -26 -16 13 -28 51 -17 51 4 0 13 -11 19 -25z m852 -79 c0 -8 7
-16 15 -20 8 -3 15 -10 15 -15 0 -13 -58 -43 -63 -33 -2 4 -5 31 -6 61 -1 30
-5 60 -7 65 -3 6 6 -2 20 -17 14 -15 26 -34 26 -41z m-460 -3 c0 -13 -6 -23
-14 -23 -15 0 -24 33 -18 65 4 19 5 19 18 0 8 -10 14 -29 14 -42z m3366 -11
c-9 -9 -37 8 -31 18 5 8 11 7 21 -1 8 -6 12 -14 10 -17z m-3241 -54 c8 -21 13
-38 11 -38 -13 0 -57 71 -51 80 9 15 21 3 40 -42z m-784 29 c19 -15 83 -108
85 -124 1 -7 -4 -17 -12 -24 -11 -9 -14 -8 -14 5 0 17 -25 63 -44 81 -17 16
-48 75 -39 75 4 0 15 -6 24 -13z m1081 -194 c3 -79 -6 -98 -19 -37 -7 36 -10
126 -4 138 9 20 19 -24 23 -101z m-649 12 c31 -38 23 -49 -10 -12 -26 29 -36
47 -26 47 4 0 21 -16 36 -35z m884 -77 c-3 -7 -5 -2 -5 12 0 14 2 19 5 13 2
-7 2 -19 0 -25z m-532 -7 c3 -5 1 -12 -5 -16 -5 -3 -10 1 -10 9 0 18 6 21 15
7z m587 -235 c2 -10 -3 -21 -11 -24 -9 -3 -12 0 -9 10 3 8 -5 45 -18 84 -13
38 -23 83 -23 99 0 20 10 1 29 -60 16 -49 31 -98 32 -109z m-614 141 c7 -6 11
-15 9 -21 -3 -7 13 -32 34 -56 70 -79 42 -98 -33 -22 -78 78 -86 158 -10 99z
m427 -77 c-3 -5 -1 -10 5 -10 6 0 8 -4 5 -10 -10 -17 -25 -11 -25 10 0 11 5
20 11 20 5 0 7 -4 4 -10z m802 -2 c10 -14 10 -19 -1 -66 -11 -46 -26 -30 -26
29 0 49 9 61 27 37z m1306 -28 c-3 -11 -7 -20 -9 -20 -2 0 -4 9 -4 20 0 11 4
20 9 20 5 0 7 -9 4 -20z m-2919 -16 c6 -10 16 -22 21 -26 6 -5 3 -8 -7 -8 -16
0 -48 35 -48 53 0 14 23 2 34 -19z m3055 -7 c31 -49 68 -127 63 -132 -12 -12
-22 -2 -47 50 -14 30 -29 55 -34 55 -5 0 -11 8 -15 18 -3 9 -9 22 -12 29 -10
21 31 3 45 -20z m492 0 c-16 -16 -25 -1 -10 16 8 8 16 11 18 5 2 -5 -2 -15 -8
-21z m-611 -35 c0 -10 11 -34 25 -55 14 -20 22 -37 18 -37 -4 0 -2 -5 5 -12 7
-7 12 -20 12 -31 0 -27 -35 -17 -36 10 -1 12 -6 35 -12 50 -19 49 -31 104 -21
98 5 -4 9 -14 9 -23z m-2100 -97 c0 -9 -46 -65 -54 -65 -2 0 -2 16 -1 36 2 29
-2 37 -21 46 -23 11 -29 20 -19 30 8 7 95 -36 95 -47z m810 -25 c0 -8 12 -28
26 -45 28 -33 58 -85 49 -85 -10 0 -35 28 -35 39 0 6 -15 26 -34 45 -35 34
-39 44 -37 80 1 20 1 20 16 0 8 -10 15 -26 15 -34z m-76 -65 c27 -27 32 -40
40 -113 3 -24 8 -47 11 -53 4 -5 2 -9 -3 -9 -18 0 -35 31 -39 73 -6 50 -19 78
-36 74 -16 -3 -44 -44 -58 -86 -13 -39 -36 -64 -78 -85 -44 -23 -46 -20 -9 18
56 56 62 67 61 115 0 44 2 47 41 67 22 12 42 22 43 23 1 0 13 -10 27 -24z
m1376 -29 c13 -40 71 -96 100 -96 25 0 32 -13 37 -72 2 -27 14 -68 25 -89 11
-22 18 -43 14 -46 -3 -4 -7 -4 -9 -2 -17 23 -87 142 -87 148 0 4 -25 32 -55
62 -34 34 -58 67 -61 85 -3 16 -7 37 -10 47 -11 36 34 -1 46 -37z m-2142 6 c2
-7 -6 -12 -17 -12 -21 0 -27 11 -14 24 9 9 26 2 31 -12z m-357 -19 c39 -28 57
-53 38 -53 -15 0 -99 61 -99 72 0 15 22 8 61 -19z m2332 -156 c3 -8 1 -20 -4
-28 -6 -10 -9 -7 -9 14 0 29 5 35 13 14z"/>
<path d="M2911 5983 c-12 -10 -25 -33 -30 -51 -8 -27 -7 -34 9 -42 16 -8 26
-5 51 18 23 21 30 33 23 43 -9 14 -10 19 -13 39 -2 15 -16 12 -40 -7z"/>
<path d="M6687 2283 c-16 -15 -5 -53 19 -72 29 -22 51 -26 73 -12 11 7 5 18
-28 50 -42 41 -52 47 -64 34z"/>
<path d="M6199 2257 c-16 -12 -30 -72 -22 -94 6 -15 33 -17 33 -3 0 6 9 19 21
31 39 39 10 99 -32 66z"/>
<path d="M6314 2256 c-4 -9 -1 -23 6 -31 6 -8 12 -29 13 -46 2 -29 27 -57 27
-30 0 6 5 11 11 11 5 0 7 -4 4 -10 -9 -15 4 -30 21 -23 26 10 33 45 15 73 -9
14 -21 34 -27 45 -14 25 -62 32 -70 11z"/>
<path d="M6580 2243 c-8 -2 -25 -20 -38 -40 -18 -27 -20 -39 -11 -47 8 -8 13
-8 16 2 6 14 42 16 44 2 1 -5 2 -16 3 -22 0 -7 10 -13 21 -13 17 0 20 6 17 45
-4 47 -26 79 -52 73z"/>
<path d="M6034 2186 c-3 -8 -6 -20 -8 -28 -1 -7 -10 -29 -20 -48 -10 -19 -22
-48 -26 -63 -8 -24 -6 -29 13 -36 16 -7 28 -4 45 12 12 11 22 25 22 31 0 6 14
26 30 45 17 18 30 36 31 40 0 3 2 14 4 24 6 32 -79 54 -91 23z"/>
<path d="M7200 2151 c0 -14 18 -23 31 -15 8 4 7 9 -2 15 -18 11 -29 11 -29 0z"/>
<path d="M6242 2132 c-12 -23 -8 -82 6 -108 14 -26 57 -21 73 8 14 25 -11 79
-46 102 -23 15 -25 15 -33 -2z"/>
<path d="M6582 2088 c2 -12 10 -23 18 -23 22 0 19 39 -3 43 -15 3 -18 -1 -15
-20z"/>
<path d="M6680 2086 c-14 -6 -31 -17 -39 -24 -12 -12 -12 -15 0 -23 8 -5 22
-9 32 -9 10 0 33 -7 53 -15 59 -24 85 2 42 42 -38 34 -60 42 -88 29z"/>
<path d="M6362 2067 c-27 -29 -28 -57 -3 -88 16 -21 21 -22 36 -9 13 11 15 24
11 59 -7 58 -17 67 -44 38z"/>
<path d="M5937 1985 c-25 -18 -27 -68 -4 -73 22 -4 46 24 47 54 0 27 -20 36
-43 19z"/>
<path d="M6718 1943 c-6 -7 -8 -17 -4 -20 8 -8 38 8 43 24 5 15 -26 12 -39 -4z"/>
<path d="M6660 1883 c0 -20 18 -43 32 -43 5 0 7 12 5 28 -4 31 -37 45 -37 15z"/>
<path d="M6355 1870 c-4 -6 -3 -30 1 -53 4 -23 8 -50 9 -60 1 -10 10 -26 19
-35 16 -16 18 -16 36 6 l19 23 28 -28 c32 -31 53 -32 71 -2 10 16 10 22 -2 35
-9 8 -18 15 -21 14 -56 -3 -97 25 -117 83 -10 27 -31 36 -43 17z"/>
<path d="M5010 1844 c0 -9 7 -14 17 -12 25 5 28 28 4 28 -12 0 -21 -6 -21 -16z"/>
<path d="M5022 1798 c-26 -26 -10 -78 24 -78 32 0 44 43 19 70 -21 23 -27 24
-43 8z"/>
<path d="M4930 1760 c0 -19 3 -21 12 -12 9 9 9 15 0 24 -9 9 -12 7 -12 -12z"/>
<path d="M5241 1730 c-24 -14 -19 -51 12 -86 35 -39 47 -37 40 9 -7 46 -35 88
-52 77z"/>
<path d="M5075 1700 c-12 -19 -6 -112 7 -126 4 -3 14 -1 24 4 13 7 27 3 57
-19 70 -50 84 -33 45 53 -21 47 -31 53 -80 49 -9 -1 -23 10 -31 25 -10 19 -16
23 -22 14z"/>
<path d="M7159 1674 c-21 -25 -2 -58 50 -81 49 -23 111 -31 111 -13 0 14 -47
58 -70 65 -11 3 -20 10 -20 15 0 4 -13 13 -29 18 -23 8 -32 7 -42 -4z"/>
<path d="M6466 1633 c-10 -30 -7 -38 14 -39 25 -2 33 10 25 36 -8 25 -32 26
-39 3z"/>
<path d="M5329 1628 c-1 -2 -2 -20 -3 -41 -1 -28 3 -42 18 -52 22 -16 40 -10
32 11 -3 8 -2 14 2 14 10 0 8 42 -2 58 -6 10 -43 18 -47 10z"/>
<path d="M5397 1604 c-3 -4 0 -16 8 -28 8 -11 15 -29 15 -40 0 -14 3 -17 11
-9 16 16 7 77 -11 81 -9 1 -19 0 -23 -4z"/>
<path d="M5857 1573 c-13 -13 -7 -32 8 -27 8 4 15 12 15 20 0 15 -12 19 -23 7z"/>
<path d="M5105 1540 c-7 -12 62 -80 81 -80 6 0 14 10 18 23 9 33 8 35 -11 33
-10 -2 -26 5 -37 16 -22 20 -42 23 -51 8z"/>
<path d="M7190 1545 c0 -19 27 -55 42 -55 21 0 25 29 6 48 -11 11 -48 17 -48
7z"/>
<path d="M5557 1521 c-5 -21 17 -61 28 -50 3 4 7 19 8 35 2 34 -27 47 -36 15z"/>
<path d="M5490 1510 c-12 -7 -12 -12 -3 -21 10 -10 14 -9 19 5 8 22 2 27 -16
16z"/>
<path d="M5837 1506 c-6 -19 16 -77 34 -87 24 -12 35 23 19 61 -12 29 -46 46
-53 26z"/>
<path d="M6475 1499 c-4 -6 -7 -26 -7 -45 0 -59 42 -87 63 -41 20 45 -32 125
-56 86z"/>
<path d="M7067 1484 c-14 -14 -7 -44 13 -54 16 -9 22 -8 27 6 10 27 -22 65
-40 48z"/>
<path d="M5428 1473 c-15 -4 -18 -16 -18 -79 0 -79 11 -114 35 -114 23 0 32
31 30 103 -1 71 -15 97 -47 90z"/>
<path d="M6576 1462 c-3 -9 -8 -31 -10 -47 -2 -17 -9 -51 -17 -76 -13 -49 -7
-83 14 -77 6 2 24 28 38 58 15 30 35 63 45 73 17 16 17 20 4 44 -8 14 -19 26
-25 25 -5 0 -18 4 -27 9 -12 7 -18 4 -22 -9z"/>
<path d="M6890 1446 c0 -23 25 -54 36 -44 9 10 -7 56 -22 62 -10 4 -14 -2 -14
-18z"/>
<path d="M7360 1445 c0 -18 27 -38 34 -26 9 14 -3 38 -19 38 -8 0 -15 -6 -15
-12z"/>
<path d="M6736 1442 c-8 -14 33 -52 49 -46 21 8 19 31 -4 44 -24 12 -38 13
-45 2z"/>
<path d="M7546 1385 c4 -9 11 -14 16 -13 15 5 11 23 -6 26 -11 2 -14 -2 -10
-13z"/>
<path d="M5910 1334 c0 -9 7 -14 17 -12 25 5 28 28 4 28 -12 0 -21 -6 -21 -16z"/>
<path d="M6304 1325 c-16 -12 -17 -17 -6 -34 6 -12 12 -29 12 -38 0 -28 14
-43 43 -49 39 -7 47 34 16 78 -39 55 -44 59 -65 43z"/>
<path d="M6005 1296 c-11 -8 -15 -19 -10 -37 8 -30 63 -94 73 -85 12 12 11
105 -1 114 -23 17 -45 20 -62 8z"/>
<path d="M7341 1238 c-11 -28 -6 -38 19 -38 25 0 33 15 20 40 -14 26 -29 25
-39 -2z"/>
<path d="M5427 1244 c-13 -14 -7 -65 8 -71 21 -7 24 -3 27 37 3 34 -17 52 -35
34z"/>
<path d="M5907 1243 c-4 -7 -3 -40 2 -65 2 -14 33 -38 48 -38 12 0 14 7 9 32
-11 53 -45 94 -59 71z"/>
<path d="M6495 1050 c-4 -7 -1 -16 6 -21 17 -10 26 8 11 23 -6 6 -12 6 -17 -2z"/>
<path d="M6542 9500 c1 -13 9 -25 16 -28 17 -5 15 23 -4 39 -14 11 -15 10 -12
-11z"/>
<path d="M7483 8623 c-7 -3 -13 -14 -13 -26 0 -21 0 -21 16 1 17 25 16 32 -3
25z"/>
<path d="M1357 7484 c-4 -4 -7 -27 -7 -51 0 -52 23 -56 28 -5 3 34 -9 67 -21
56z"/>
<path d="M1360 7035 c-7 -8 -9 -15 -5 -15 4 0 3 -6 -3 -12 -5 -7 -6 -22 -3
-32 7 -18 8 -18 24 5 28 39 16 89 -13 54z"/>
<path d="M5915 5503 c-9 -21 -20 -46 -25 -55 -6 -10 -10 -25 -10 -33 0 -8 -4
-15 -8 -15 -5 0 -15 -22 -22 -50 -7 -27 -18 -50 -23 -50 -5 0 -7 -14 -3 -30 5
-30 -6 -75 -40 -156 -9 -21 -15 -39 -14 -39 5 0 -75 -131 -89 -146 -9 -9 -27
-23 -41 -32 -30 -19 -92 -118 -94 -149 -2 -35 19 -31 63 14 83 82 281 370 281
407 0 6 5 11 12 11 6 0 9 3 5 6 -3 3 -1 18 5 33 6 14 12 35 14 46 2 11 13 65
24 120 23 114 23 148 -3 153 -12 3 -22 -7 -32 -35z"/>
<path d="M5790 4711 c0 -17 18 -21 24 -6 3 9 0 15 -9 15 -8 0 -15 -4 -15 -9z"/>
<path d="M4637 4539 c-9 -6 -17 -14 -17 -19 0 -16 30 -11 37 5 8 21 1 25 -20
14z"/>
<path d="M2255 4451 c-14 -45 -17 -73 -20 -200 -2 -126 8 -201 27 -201 19 0
29 60 29 181 1 70 5 147 10 169 7 30 6 46 -2 56 -16 20 -37 17 -44 -5z"/>
<path d="M2328 4108 c0 -7 -2 -32 -3 -55 -1 -30 -7 -47 -20 -58 -13 -9 -16
-18 -10 -22 17 -13 17 -35 -1 -54 -20 -22 -29 -92 -16 -116 9 -15 13 -12 31
18 11 19 21 45 21 58 0 13 10 39 21 58 20 32 23 64 17 149 -2 18 -38 37 -40
22z"/>
<path d="M2092 4014 c-13 -23 3 -85 24 -101 24 -17 36 -4 38 44 4 58 -40 97
-62 57z"/>
<path d="M1907 3896 c-3 -7 1 -23 9 -34 16 -23 86 -60 102 -54 20 6 13 41 -10
53 -12 6 -31 20 -42 30 -23 22 -52 25 -59 5z"/>
<path d="M5927 3864 c-53 -19 -141 -79 -157 -109 -11 -21 -11 -27 4 -44 13
-14 24 -17 54 -11 20 3 46 11 57 17 36 19 147 54 184 58 20 3 58 7 85 9 27 3
54 10 60 16 17 17 -6 43 -50 58 -54 19 -190 22 -237 6z"/>
<path d="M2121 3851 c-10 -6 -11 -13 -3 -27 10 -18 11 -18 17 -2 10 25 3 39
-14 29z"/>
<path d="M4960 3728 c-26 -14 -51 -36 -60 -53 -8 -16 -18 -31 -21 -33 -20 -9
-109 -105 -109 -116 0 -36 58 -22 107 26 17 17 29 36 27 43 -8 19 43 73 81 86
31 12 51 42 39 61 -8 12 -15 10 -64 -14z"/>
<path d="M7117 3726 c-3 -8 -3 -16 0 -19 9 -10 33 5 33 19 0 18 -26 18 -33 0z"/>
<path d="M5991 3547 c-14 -14 -14 -34 -1 -42 17 -10 70 5 70 20 0 25 -50 41
-69 22z"/>
<path d="M4722 3533 c-29 -25 -39 -71 -18 -79 20 -8 22 -7 40 37 19 45 8 67
-22 42z"/>
<path d="M8177 3413 c-16 -16 -6 -43 19 -49 37 -9 51 15 23 39 -23 18 -32 21
-42 10z"/>
<path d="M4490 3385 c-10 -13 -9 -15 9 -15 11 0 21 4 21 9 0 18 -18 21 -30 6z"/>
<path d="M7040 3346 c0 -29 19 -65 41 -76 26 -14 44 -1 35 27 -14 45 -76 84
-76 49z"/>
<path d="M6985 3260 c-10 -16 4 -49 26 -60 16 -9 19 -7 19 14 0 13 -7 32 -16
40 -18 19 -21 19 -29 6z"/>
<path d="M5566 3245 c4 -8 12 -15 20 -15 8 0 11 6 8 15 -4 8 -12 15 -20 15 -8
0 -11 -6 -8 -15z"/>
<path d="M7694 3248 c-3 -4 0 -25 7 -46 7 -20 14 -39 14 -42 7 -31 39 -89 47
-84 10 6 5 144 -5 162 -9 13 -56 21 -63 10z"/>
<path d="M7580 3235 c-14 -16 -3 -20 19 -6 8 5 9 11 3 15 -5 3 -15 -1 -22 -9z"/>
<path d="M8126 3202 c-8 -13 11 -35 23 -28 16 10 14 36 -3 36 -8 0 -17 -4 -20
-8z"/>
<path d="M7150 3166 c0 -17 23 -27 40 -16 10 6 8 11 -8 19 -27 14 -32 14 -32
-3z"/>
<path d="M5034 3142 c-27 -21 -41 -47 -47 -88 -10 -65 28 -72 57 -11 9 20 22
37 28 39 16 6 19 61 4 70 -15 11 -18 10 -42 -10z"/>
<path d="M7634 3129 c-8 -14 11 -33 25 -25 6 4 11 14 11 22 0 16 -26 19 -36 3z"/>
<path d="M2736 3101 c-3 -5 1 -11 9 -15 9 -3 15 0 15 9 0 16 -16 20 -24 6z"/>
<path d="M4601 2982 c-15 -27 -14 -32 4 -32 20 0 31 28 17 42 -7 7 -14 4 -21
-10z"/>
<path d="M4567 2918 c-14 -7 -15 -13 -7 -23 13 -16 40 -9 40 10 0 20 -13 25
-33 13z"/>
<path d="M7910 2889 c0 -18 2 -19 15 -9 15 12 12 30 -6 30 -5 0 -9 -10 -9 -21z"/>
<path d="M2962 2848 c-32 -16 -26 -52 9 -56 31 -4 44 19 29 49 -6 10 -12 19
-13 18 -1 0 -12 -5 -25 -11z"/>
<path d="M8041 2796 c-12 -14 -5 -26 16 -26 15 0 18 26 4 34 -5 3 -14 0 -20
-8z"/>
<path d="M4022 2607 c-16 -19 22 -67 39 -50 10 10 10 18 1 38 -13 28 -24 31
-40 12z"/>
<path d="M4093 2479 c-16 -16 -4 -49 18 -49 11 0 19 6 20 13 0 6 2 20 4 30 4
19 -24 24 -42 6z"/>
<path d="M4261 2396 c-9 -10 -8 -15 4 -20 8 -3 15 -4 15 -2 0 3 3 11 6 20 8
20 -9 21 -25 2z"/>
<path d="M3080 2043 c0 -16 71 -131 85 -137 38 -14 -6 94 -54 131 -18 14 -31
16 -31 6z"/>
</g>
</svg>
