<?xml version="1.0" encoding="utf-8"?>
<!-- Generator: Adobe Illustrator 21.1.0, SVG Export Plug-In . SVG Version: 6.00 Build 0)  -->
<svg version="1.1" id="svg" xmlns="http://www.w3.org/2000/svg" xmlns:xlink="http://www.w3.org/1999/xlink"
	 viewBox="0 0 255 345" height="125" width="92.5" xml:space="preserve">
<g id="svgg">
	<path id="path0" d="M114.4,0.7c-2.7,1.5-8.6,2.7-15.7,3.2C97.1,4,95,4.3,94.1,4.6C92.4,5.1,86.2,6.3,83,6.8c-2.7,0.4-8.9,2-9.7,2.6
		c-0.4,0.3-1.3,1.1-2.1,1.8c-2.9,2.6-3.8,3.2-6.3,4.1c-3.2,1.1-7.2,3-8,4c-0.4,0.4-0.9,0.8-1.1,0.8c-0.9,0-6.2,1.9-7.7,2.7
		c-0.9,0.5-2.1,1.1-2.7,1.5c-2.6,1.3-3.3,1.7-6.5,3.6c-1.8,1.1-3.7,2.5-4.2,3.1s-1.5,1.5-2.3,1.9c-1.6,0.8-6.6,5.7-7.7,7.5
		c-1.4,2.4-3.5,4.9-5.2,6.5c-1,0.9-2.1,2.4-2.6,3.3c-0.4,0.9-1.4,2.5-2.3,3.5s-1.7,2.2-2,2.6c-0.9,1.8-2.3,6-2.5,7.4
		C10,64.6,9.5,66.2,9,67.4c-0.8,1.9-0.9,2.4-0.7,4.8c0.2,2.4,0.1,2.9-0.6,4C7.2,77,7,77.8,7.1,78.3c0.1,0.4-0.1,1.5-0.4,2.4
		s-0.5,2-0.3,2.5c0.1,0.5,0,1-0.2,1.1s-0.4,1.3-0.4,2.6c0,1.5-0.2,2.7-0.6,3.4c-0.9,1.5-0.4,2.5,1,2.2c1.2-0.2,1.3-0.2,0.7,0.9
		c-0.2,0.4-0.8,0.7-1.3,0.7c-0.9,0-1.8,1.7-1.1,2.2c0.2,0.1,0.3,0.6,0.3,1.1c0,1.2,1.1,1.9,2,1.2c0.4-0.3,1-0.5,1.3-0.5
		c0.9,0,0.4,0.8-0.6,1c-1.5,0.2-1.7,1.1-0.9,4.2c0.2,0.9,0.1,1-1.3,1.2s-1.5,0.3-1.3,1.1c0.5,1.4,0.2,3.3-0.5,4.1S2,113.2,2,114.8
		c0,0.6-0.3,1-0.8,1.1c-0.6,0.2-0.7,0.4-0.6,1.1c0.1,0.6,0,1.5-0.4,2.2c-0.7,1.5,0.3,7.8,1.2,7.5c0.3-0.1,0.5,0.4,0.5,1.6
		c0.3,21.4,0.6,26.6,2,31.9c0.6,2.3,1.1,5.1,1.1,6.2s0.4,4.2,0.9,6.9c1.1,5.9,1.5,7.9,2,10.8c0.2,1.2,0.6,3.1,1,4.1
		c0.3,1,1.3,4,2.1,6.7c0.8,2.6,1.7,5.3,2,5.9c0.3,0.6,0.6,1.7,0.7,2.3c0.1,0.7,0.5,1.7,1,2.2c0.4,0.5,0.7,1.2,0.7,1.6
		c0,1.1,1.1,2.3,2.2,2.3c1.9,0,2.4-1.4,1.4-3.8c-0.5-1.1-0.5-1.3,0.1-1.9c0.6-0.7,0.4-1.7-0.6-4.6c-0.2-0.4-0.2-1,0-1.3
		s0.4-1.1,0.5-1.8s0.6-2.3,1.2-3.4c0.6-1.2,0.9-2.3,0.8-2.5s0.1-0.3,0.5-0.1c0.6,0.1,0.7,0.5,0.7,1.5c0,3.6,2,5.8,2.4,2.7
		c0.3-1.9,1.2-5.7,1.4-5.9c0.6-0.6,1,12.6,0.5,13.7c-0.6,1.2,0,3.3,1,3.1c0.9-0.1,2.1-3.1,1.5-3.6s-0.8-3-0.1-3.4
		c0.3-0.2,0.3-1.1,0.2-2.6c-0.3-3.3-0.2-4.5,0.2-4.9c0.2-0.2,0.4-0.8,0.4-1.4s0.1-1.3,0.3-1.7c0.7-1.4,1.1-2.6,1.5-4.3
		c0.9-4.1,0.9-4.2,1.3-3.2c0.2,0.5,0.1,1.1-0.1,1.3c-0.5,0.6-0.9,6.6-0.5,7.2c0.6,1,2.9-2,2.5-3.4c-0.1-0.6,0-1.1,0.5-1.5
		c0.9-0.7,0.9-1.7,0.2-2.7c-0.7-1-0.7-1,0.6-1.8c0.9-0.5,1.1-0.9,1-1.5s0-0.8,0.6-0.8c0.5,0,0.8-0.3,0.9-0.7s0.5-1.1,1-1.5
		s0.9-1.2,0.9-1.6c0-1.3-1.1-0.8-2,0.9l-0.8,1.5l-0.1-1.1c-0.1-0.7,0.6-2.5,2.1-5.6c1.2-2.5,2.3-4.7,2.2-4.9c0-0.2,0.3-0.6,0.7-0.9
		c0.4-0.3,0.7-0.8,0.7-1c0-0.3,0.3-0.8,0.6-1.1c0.4-0.4,0.5-0.9,0.4-1.8c-0.2-1-0.1-1.2,0.3-1.2c0.8,0,0.7-0.9-0.3-1.6l-0.8-0.6
		l0.9-0.9c0.6-0.5,1.3-0.8,1.8-0.7s1.7-0.2,2.8-0.5c1.1-0.4,3.2-0.7,4.8-0.7c1.6,0,2.8-0.2,2.7-0.3c-0.1-0.2,0-0.3,0.1-0.3
		s0.7-0.1,1.2-0.2c0.5-0.1,1.8-0.6,2.9-1.1c1.1-0.6,2.6-1,3.5-1c0.8,0,1.8-0.2,2-0.5c0.5-0.5,3.6-1.5,5.6-1.9
		c0.5-0.1,1.1-0.3,1.3-0.4c0.9-0.6,1.7-0.4,2.1,0.4c0.3,0.7,0.5,0.8,1.1,0.7c0.4-0.1,1.2,0.1,1.7,0.4c0.8,0.5,1,0.5,2.2,0
		s1.4-0.5,2.1,0.2c0.9,0.9,1.9,1,1.9,0.2c0-0.3-0.2-0.6-0.5-0.6s-0.3-0.1,0.1-0.3c0.8-0.5,1.5,0.3,1.3,1.2c-0.1,0.4,0.1,1.3,0.5,1.8
		c0.7,1.1,0.5,2.9-0.6,3.8c-1.1,0.9-0.1,2.4,1.4,2.2c2.2-0.2,2.8-2.1,1.4-4.8c-0.4-0.8-0.7-1.8-0.7-2.3s-0.2-1-0.4-1.1
		s-0.3-0.5-0.2-0.7c0.3-0.7-0.4-3-1.1-3.7c-0.3-0.3-0.5-0.7-0.3-1c0.9-1.5,3.8,7.9,4.5,14.4l0.2,2l-0.9-0.6c-0.5-0.3-1-0.4-1.1-0.2
		s-0.8,0.5-1.6,0.6c-2.3,0.4-2.7,0.6-2.7,1.3c0,0.6,0.3,0.7,2,0.7c1.3,0,2.1,0.2,2.2,0.5c0.1,0.3,0.2,0.9,0.4,1.5
		c0.5,2.1,1.6,1,1.4-1.4c-0.2-2.6,0.6-1.6,1.2,1.5c0.1,0.4,0.3,1.2,0.5,1.9c0.2,0.6,0.6,2,1,3.1c0.9,2.9,3,7.2,4.6,9.2
		c0.9,1.1,1.3,1.6,3.1,3.8c2.9,3.5,14.3,8.5,14.3,6.4c0-1.1-0.6-1.7-1.5-1.6c-0.6,0.1-1.3-0.3-2.1-1.1c-0.7-0.7-1.5-1.2-1.7-1.2
		c-0.3,0-1-0.7-1.7-1.5s-1.4-1.5-1.7-1.5c-0.4,0-3.2-2.6-3.2-3c0-0.1-0.7-0.9-1.5-1.8c-0.8-0.9-1.6-2-1.7-2.5
		c-0.1-0.5-0.5-1.5-0.7-2.1c-1.2-2.6-2.4-6.7-2.6-8.6l-0.2-2l1,0.2c0.7,0.2,1.2,0.1,1.6-0.3c2-1.8,4.1-2.5,6.3-2.1
		c1.1,0.2,2.9,0.4,4,0.4s2,0.1,2,0.3c0,0.7,1.5,1.2,2.4,0.8c1.1-0.5,1.8-0.1,0.8,0.5c-1,0.5-0.8,0.8,1,1.7c2.1,1,3.3,1,4,0
		c0.5-0.7,0.6-0.7,0.8-0.2c0.1,0.3,0.4,0.6,0.7,0.6c0.2,0,0.7,0.2,0.9,0.3c0.7,0.5-0.4,2.2-1.4,2.2c-0.9,0-1.8,1.4-1.1,1.9
		c0.3,0.2-0.5,0.4-1.8,0.5c-1.4,0.2-2.7,0.6-3.6,1.2c-0.7,0.5-1.5,0.9-1.7,0.9c-0.5,0-0.4,1,0.1,1.4s8.1,0.3,9.9-0.1
		c0.5-0.1,2.5-0.3,4.3-0.5c2-0.2,4.1-0.6,5-1s2.6-1,3.7-1.4c2.1-0.7,2.8-1.3,2.3-2.2c-0.1-0.2,0.1-0.1,0.5,0.2
		c1.2,1.1,1.6,0.8,1.5-1.2c-0.1-2.2-0.8-3-2.4-2.7c-0.7,0.1-1.1,0-1.2-0.4c-0.2-0.5-0.1-0.6,0.7-0.4c1.9,0.5,3.9-3.1,2.6-4.4
		c-0.8-0.8,0-1.2,0.9-0.5c1.2,1.1,3.4-0.6,3.4-2.6c0-1.1,0.1-1.1,1.1-0.5c0.8,0.5,2.7-0.5,2.6-1.3c0-0.2,0.1-0.9,0.4-1.5
		c0.6-1.3-0.1-3-1.1-2.7c-0.8,0.3-1.8-0.2-1.8-0.8c0-0.3,0.4-0.5,1-0.4c0.9,0.1,1-0.1,1.5-1.6c0.3-0.9,0.6-1.9,0.8-2.3
		c0.2-0.3,0.3-1,0.2-1.4s0-1,0.2-1.2c0.8-1,0.9-2.2,0.2-2.7c-1-0.7,0.1-0.7,1.2,0.1c0.6,0.4,0.8,0.7,0.5,0.9
		c-0.7,0.4-0.1,2.2,0.6,1.9c0.3-0.1,0.8,0,1,0.3c0.6,0.8,1.4,1,2.2,0.6c1-0.5,1.4,0,0.9,1c-0.3,0.7-0.3,1,0.1,1.5
		c0.7,0.8,1.3,0.5,1.5-0.7c0.2-1,0.2-1,0.8-0.3c1.6,1.7,2.5,2.8,2.5,3.2c0,0.2,0.4,1.1,0.9,1.8c0.5,0.8,1,1.8,1.1,2.4
		c0.1,0.6,0.4,1.8,0.7,2.8c0.9,2.8,0,7.4-2.6,13.6c-2.4,5.5-4,8-7.7,11.8c-3.5,3.7-9.4,7.5-11.4,7.5c-0.3,0-1.7,0.4-3.2,0.9
		c-2.8,1-5.7,1.5-7.6,1.4c-5.4-0.3-8,0-8,1c0,2.2,14,2.4,19.2,0.2c0.7-0.3,1.7-0.5,2.2-0.5s0.9-0.1,0.9-0.3s0.6-0.5,1.3-0.8
		s1.5-0.7,1.8-0.9s1-0.8,1.5-1.1c0.6-0.4,1.8-1.3,2.6-2.1c1.7-1.6,4.1-2.8,5.4-2.8c0.6,0,1.1-0.3,1.5-1.1c0.3-0.6,0.8-1.3,1.1-1.6
		s0.8-1.2,1.2-2.1c0.4-0.8,1.2-2.3,1.8-3.3s1.2-2.1,1.2-2.4s0.3-1,0.7-1.5s1-1.9,1.3-3.1c0.4-1.2,0.8-2.5,0.9-2.8
		c0.1-0.3,0.2-0.6,0.3-0.7c0-0.1,0.3-0.7,0.5-1.3s0.5-1.9,0.6-3c0.3-3.3,3.4-5.1,8.5-4.7c4.8,0.3,8,2.7,9.8,7.5
		c0.4,1.1,1,2.5,1.4,3.1c0.3,0.6,0.5,1.1,0.4,1.3c-0.1,0.1,0,0.5,0.2,0.9s0.5,1.1,0.5,1.5c0.1,0.4,0.4,1.9,0.8,3.3
		c0.4,1.4,0.6,2.6,0.5,2.7c-0.1,0.1,0,0.6,0.2,1c0.4,0.9,1.3,3.8,1.4,4.7c0.1,1.1,0.6,2.2,1,2.2c0.2,0,0.3,0.2,0.3,0.5
		s0.5,1.2,1.1,2s1.1,1.7,1.1,1.9s0.2,0.4,0.4,0.4c0.2,0,0.5,0.3,0.6,0.6c1.1,3.1,9.4,8.7,15.1,10.1c1.8,0.5,3.8,1,4.4,1.1
		c2.3,0.7,12.8,0.1,15.7-0.9c1.9-0.6,2.5-0.4,2.9,1.4c0.2,0.9,0.8,2.4,1.3,3.4c0.9,1.8,0.9,2.1-0.3,2.5c-0.4,0.1,0,3.1,0.5,3.9
		c0.6,1,1.5-0.2,1.5-2.1c0-1.1,0.2-1.6,0.5-1.6c0.9,0,1.6-1.2,2.6-4.5c0.6-1.8,1.2-3.1,1.4-3c0.4,0.3,0.4,1.5,0,1.8
		c-0.9,0.6-1.3,5.4-0.6,7.4c0.4,1.1,0.4,1.6,0.1,2.2c-0.2,0.4-0.5,2.4-0.5,4.3c-0.1,2.1-0.3,3.6-0.5,3.7c-0.2,0.1-0.4,0.4-0.4,0.8
		c0,0.6,0,0.6-0.4,0c-0.5-0.9-1.7-0.8-2,0.1c-0.4,1.2,0.4,1.7,1.4,1.1c0.8-0.5,0.8-0.5,0.3,0.1c-0.4,0.5-0.4,0.8-0.1,1.4
		c0.6,1.2,0.9,2.8,0.5,3c-0.4,0.3-1-0.2-1.3-1s-1.1-0.6-1.3,0.3c-0.1,0.8,2.2,2.9,3,2.7c0.6-0.2,1.8,3.7,1.5,5.2
		c-0.2,1.3-0.7,1.6-1,0.6c-0.1-0.3-0.6-0.6-1-0.6c-0.8,0-1,0.7-0.4,1.8c0.2,0.4,0.7,1.4,1.2,2.4c0.9,1.8,0.8,2.8-0.2,1.6
		c-1.1-1.5-2,0.2-1.2,2.3c0.4,0.9,0.5,1.8,0.4,1.9c-0.4,0.4-1.5-0.6-1.6-1.6c-0.3-2.4-1.5-1.1-1.7,1.9c-0.1,1.1-0.4,2.2-0.7,2.6
		c-0.8,1-1.1,2.9-0.4,3.2c0.4,0.2,0.5,0.5,0.3,1.3s0,1.4,0.5,2.2c1.1,1.5,0.1,2.4-1,1c-0.2-0.3-1-0.6-1.6-0.7
		c-1.3-0.2-2.9-1.4-3.6-2.7c-0.2-0.5-0.8-0.8-1.2-0.8c-0.5,0-0.8-0.3-1-1.1c-0.1-0.6-0.3-1.1-0.5-1.1c-0.8,0-1.2-0.7-0.8-1.4
		c0.6-1-0.1-2.7-1-2.7s-1.4,0.6-1.6,1.9c-0.1,0.7-0.2,0.7-0.2-0.4c-0.1-1.9-1.6-3.6-2.8-3.1c-0.8,0.4-2.5-0.8-2.5-1.8
		c0-0.5-1-0.4-1.2,0.1c-0.1,0.3-0.2,0.3-0.4,0c-0.2-0.2-0.1-0.4,0.1-0.4s0.4-0.2,0.4-0.6c0-0.6-0.4-0.7-1.5-0.6
		c-0.4,0-0.7-0.3-0.7-0.8c-0.2-1.5-1.9-1.2-2.1,0.4c-0.1,0.8-0.3,1.2-0.6,1.1c-0.2-0.1-0.7,0-1.1,0.2c-0.7,0.4-2.9,0-2.9-0.5
		c0-0.2,0.2-0.3,0.6-0.3c0.3,0,0.6-0.3,0.6-0.7c0-0.8-0.9-1.3-1.6-0.9c-0.2,0.1-0.3,0.1-0.2-0.2c0.5-0.8-0.2-1.6-1.1-1.5
		c-0.5,0.1-0.9,0-0.9-0.3c0-0.9-0.9-1.7-1.8-1.5s-1.1,1.2-0.4,2.4c0.3,0.5,0.6,0.7,1.1,0.5c0.6-0.2,0.7-0.1,0.6,0.4
		c-0.1,0.4,0.1,0.7,0.3,0.7c0.3,0,0.6,0.1,0.8,0.1c0.2,0,0.3,0.5,0.4,1.1s0.3,1.1,0.6,1.3c0.3,0.2,0.6,0.8,0.8,1.5
		c0.1,0.7,0.4,1.3,0.5,1.4s0.5,0.6,0.9,1l0.7,0.8l-1.2-0.6c-0.6-0.3-1.2-0.7-1.2-0.9c0-1.3-4-3.4-4.1-2.1c0,0.3-0.2,0-0.4-0.5
		c-0.2-0.5-0.8-1.2-1.4-1.4c-0.6-0.2-1.3-0.7-1.5-1c-0.5-0.6-1.8-0.7-1.8-0.1c0,0.2-0.3,0.4-0.7,0.4c-0.4,0-0.7-0.2-0.7-0.3
		s-0.5-0.3-1-0.3c-0.8,0.1-1-0.1-1.1-0.9c-0.2-1.3-0.8-1.9-1.6-1.7c-0.5,0.1-0.9-0.2-1.5-1.1c-0.4-0.7-1.2-1.3-1.6-1.4
		c-0.6-0.2-0.9-0.6-1.2-2.1c-0.2-1-0.6-2.2-0.7-2.5c-1.1-2.1,1.9-2.7,4-0.8c1.2,1.1,2.4,1.4,2.9,0.7c0.2-0.3,0.5-0.2,0.9,0.4
		c0.8,1.1,3,1.5,3,0.6c0-1-1-2.2-2-2.5c-0.7-0.2-0.9-0.4-0.7-1.2c0.1-0.7,0-1.1-0.4-1.3c-0.9-0.5-0.7-1.8,0.4-2.2
		c1.8-0.7,5.3-3.4,5.6-4.4c1.5-4.1-1.2-5.9-4.3-3c-1.6,1.5-2.3,1.8-2.3,1.1s-1.6-0.2-2.6,0.7c-1.4,1.3-2.6,2.1-4.4,2.6
		c-1.5,0.4-2.1,1.2-1.8,2.2c0.1,0.3-0.7,0.6-1.9,0.9c-2.3,0.5-2.2,0.5-7.1-0.1c-2-0.2-3.9-0.3-4.3-0.2c-0.4,0.1-1.3,0-1.9-0.4
		c-1.2-0.6-1.8-0.4-1.8,0.9c0,0.3-0.4,0.8-0.9,1.3c-0.5,0.4-0.9,1.1-0.9,1.5s-0.2,0.8-0.6,0.9c-0.4,0.1-0.6,0.7-0.6,1.9
		c0,0.9-0.3,2-0.6,2.5s-0.5,1-0.4,1.2c0.2,0.4-0.7,7.1-1.1,7.4c-0.1,0.1-0.2-0.9-0.1-2.2l0.1-2.4h-1.1c-1,0-1.1,0.1-1.6,2.2
		c-0.7,2.9-2.9,7.5-2.5,5.2c0.1-0.8,0.4-1.9,0.6-2.4c0.4-1,1.1-5.3,1.1-6.6c0-0.6,0.3-0.9,0.9-1.1c1.2-0.3,0.5-2-0.8-2
		c-0.2,0-0.6-0.3-1-0.7c-1-1.2-2.8-0.1-2.4,1.4c0.3,1.3-0.3,1.8-1.1,0.8c-0.7-0.8-0.8-0.9-1.8-0.4c-0.6,0.3-1.4,0.6-1.8,0.6
		c-1.5,0.3-2.2,1.3-1.9,3.1c0.2,1.9-0.6,3.2-2.4,4c-0.7,0.3-1.1,0.8-1.2,1.8c-0.2,0.9-0.4,1.3-0.9,1.3c-1.3-0.1-1.6,0-1.5,0.9
		c0.1,0.5-0.1,1.1-0.4,1.3c-0.3,0.3-0.4,0.7-0.3,1c0.1,0.3,0,0.4-0.3,0.3s-0.4-0.5-0.3-1c0.1-0.4,0.2-1.3,0.2-1.9
		c0-0.7,0.3-1.2,0.8-1.4c1-0.4,1.2-1,1-2.3c-0.2-1.2-1.1-1.3-1.4-0.3c-0.2,0.5-0.6,0.7-1.5,0.7c-1,0-1.3,0.2-1.5,1.1
		c-0.2,0.6-0.9,1.5-1.6,1.9l-1.2,0.8l0.7-1.4c0.4-0.8,1-1.7,1.3-1.9c0.4-0.3,0.6-1,0.6-1.6c0-0.9,0.1-1.1,0.4-0.7
		c0.7,0.7,1,0.5,1.6-0.9c0.5-1.1,0.6-1.4,0.1-1.7c-0.8-0.5-1-0.4-1.3,0.4c-0.1,0.5-0.6,0.7-1.1,0.7c-1.3,0-3.9,3.3-3.9,4.9
		c0,0.3-0.3,0.6-0.7,0.7s-0.7,0.5-0.7,0.9c0,1.3-1.4,1.8-1.8,0.7c-0.5-1.3-1.4-1.2-1.9,0.3c-0.5,1.4-1.4,1.8-3.2,1.5
		c-1.1-0.2-3.1,1.1-3.1,2c0,0.2-0.1,0.4-0.3,0.3c-0.7-0.4-0.1-4.6,0.9-6c1.5-2.2,1.2-4-0.5-2.7c-1.2,0.9-1.7,0.6-1-0.7
		c0.3-0.6,0.5-1.4,0.5-1.7c0-0.4,0.1-1.1,0.2-1.5c0.2-0.6,0.1-0.8-0.3-0.8c-0.8,0-2.4,1.4-2.7,2.3c-0.1,0.5-0.6,1.2-0.9,1.7
		c-0.8,1.1-0.6,1.8,0.7,2.2c0.9,0.3,0.9,0.3-0.4,0.3c-1.5,0-3.6,1.8-3.7,3c0,0.3-0.6,1.6-1.3,2.8c-0.7,1.2-1.5,2.8-1.8,3.5
		c-0.4,0.8-1.1,1.5-1.8,1.9c-1,0.4-1.2,0.8-1.3,1.9c-0.1,0.7-0.3,1.5-0.5,1.6c-0.2,0.2-0.3,0.6-0.3,1s-0.3,0.8-0.6,1
		c-0.4,0.2-0.5,0.6-0.4,1s-0.1,0.9-0.5,1.3c-0.9,0.9-1,4.2-0.1,5.1c0.7,0.7,0.6,3.3-0.2,4.1c-0.4,0.4-0.5,1-0.4,2.1
		c0.1,0.8,0.3,2.3,0.4,3.2c0.2,1.3,0.1,1.5-0.2,1c-0.2-0.4-0.5-1.3-0.5-2.2c-0.1-0.8-0.3-1.6-0.6-1.8c-0.4-0.2-0.4-0.5,0-1.4
		c0.5-1.3,0.2-3-0.5-3c-1.1,0-1.7,3.1-0.7,3.6c0.5,0.3,0.5,0.4,0,0.6c-0.6,0.2-0.9,2.5-0.3,2.5c0.2,0,0.3,1,0.4,2.2
		c0.1,1.7-0.1,2.2-0.4,2.2c-0.7,0-1.3-3-1.7-8.3c-0.2-2.5-1.2-3.3-1.9-1.5c-0.6,1.5-1.7,1-1.9-0.7c-0.2-2.1-1.1-1.6-2,1.1
		c-0.2,0.6-0.3,0.5-0.9-0.7c-0.9-2.1-1.2-2.5-1.8-2.3c-0.6,0.1-3-2.1-3-2.9c0-0.4-1.1-1.1-1.3-0.8c-0.4,0.5-0.9,1.9-0.9,2.4
		c0,0.4-0.2,0.9-0.5,1.2c-0.5,0.4-0.6,6.2-0.1,8.2c0.1,0.5-0.1,0.1-0.6-0.8c-1-2-1.2-7.6-0.3-8.7c0.5-0.6,0.4-1.6-0.2-3
		c-0.2-0.5-0.2-0.7,0.2-0.5c1,0.3,1.8-1.2,1.9-3.6c0.1-3.7,0-4.3-0.8-5.2c-0.6-0.6-0.7-1-0.4-1.5c0.4-0.7,0.1-2.1-0.4-2.1
		c-1.4,0-2.3,5.9-1.3,8.1c0.3,0.7,0.5,1.8,0.5,2.6c-0.1,1.3-0.1,1.3-1.1-1.3c-0.6-1.4-1-2.8-1-3c0-0.5-1-1.6-1.5-1.6
		c-0.2,0-0.3,0.5-0.2,1.2c1.1,5.8,1,6.9-0.2,6.5c-0.8-0.3-1-0.5-0.6-1c0.3-0.5,0.2-1.5-0.2-3.3c-0.5-2.1-0.5-2.7-0.1-3.2
		c0.7-0.8,0.1-3.2-0.8-3.4c-0.8-0.2-0.8-0.3-0.3-2c0.8-2.6,0.8-3.7,0-4.5c-1-1-1.9-0.6-1.9,0.8c0,0.8-0.4,1.5-1.1,2.3
		c-1,1.1-1.3,2-1.1,3.7c0.2,2-1.8,0.1-2.1-2c-0.2-1.8-0.9-2.4-1.5-1.4c-0.2,0.3-0.4,0.2-0.7-0.2c-1.5-2.1-4.5,1.7-3.6,4.6
		c0.3,0.8,0.3,1.3-0.1,1.8c-0.8,1-0.6,1.6,0.4,1.8c0.9,0.2,1.2,1.1,1,2.5c0,0.2,0.1,0.2,0.3,0.1s0.3,0.7,0.2,2.3
		c-0.1,1.4-0.3,2.6-0.6,2.7c-0.4,0.3-0.4,2.4,0,3.3c0.1,0.3,0.1,1,0,1.5l-0.3,0.9l-0.4-0.9c-0.2-0.5-0.3-2-0.1-3.3
		c0.1-1.3,0.2-2.8,0.1-3.3c-0.1-0.5-0.2-1.6-0.4-2.3c-0.3-2.4-2.3-1.5-2.3,1c0,0.5-0.2,1-0.4,1.2c-0.2,0.1-0.4,0-0.4-0.2
		c0-0.3-0.4-0.4-1.1-0.3c-0.8,0.1-1.2,0-1.5-0.5s-0.2-0.7,0.3-0.7c1.3,0,1.8-1.1,0.8-1.9c-2.9-2.4-4.4,0.8-3.6,7.6
		c0.4,3.4,0.3,6.9-0.3,7.4c-0.1,0.1-0.6-0.6-1-1.5c-0.8-1.6-0.8-1.8-0.2-2.2c1.1-0.8,0.4-2-1-1.9c-0.8,0.1-1.2-0.1-1.2-0.6
		c-0.1-0.9,0.4-1.2,0.9-0.4c0.5,0.8,1.6,0.4,1.6-0.6c0-0.4-0.4-1.2-0.9-1.7c-1-1-1.1-1.4-0.6-2.4c0.3-0.5,0.2-1-0.1-1.6
		c-0.5-1.2-1.4-1.2-1.6,0c-0.1,0.5-0.3,1.3-0.4,1.9c-0.2,1.2-0.8,1.2-1.1,0c-0.1-0.6,0-1.3,0.4-1.8c0.8-1.2,0.8-2.5-0.1-3.5
		c-0.5-0.6-0.6-1-0.4-1.3c0.5-0.7-0.3-2.8-1.1-2.8c-0.4,0-0.9-0.4-1.1-0.9c-1.1-2.1-1.8-0.5-0.7,1.9c0.6,1.3,1.1,4.7,1.2,7.8
		c0.1,2.8,0.3,3.2,2.3,7.2c1.2,2.3,2.5,5,2.9,5.8c0.8,2,2.5,2.3,2.5,0.6v-1l0.6,1.1c0.4,0.7,0.4,1.1,0.2,1.2c-0.7,0.2-0.5,0.8,0.7,2
		c0.6,0.6,1.2,1.6,1.3,2.1s0.6,1.4,1.1,1.9c0.7,0.8,0.8,1.2,0.7,2.6c-0.1,1,0,1.7,0.3,1.9c0.4,0.2,0.4,0.3,0,0.3
		c-2.6,0,3.5,6.4,7,7.2c0.5,0.1,1.9,1.1,2.9,2.2c1.1,1.1,2.2,2,2.5,2s1.6,0.6,3,1.4s2.6,1.3,2.8,1.3c0.2-0.1,0.2,0.3,0.1,0.8
		c-0.1,0.5-0.1,0.9,0.1,0.8c0.1-0.1,0.7,0.5,1.3,1.4s1.6,2.2,2.2,3c0.6,0.8,1.5,2.1,1.8,2.8c0.4,0.7,1,1.7,1.5,2.2s0.9,1.1,0.9,1.3
		s0.7,0.9,1.6,1.5c0.9,0.6,1.6,1.2,1.7,1.4c0.1,0.2,1.1,1.3,2.3,2.6c1.2,1.2,2.4,2.8,2.6,3.6c0.5,1.6,1,2.3,3.1,4.5
		c0.9,1,1.6,2,1.5,2.2s-0.1,0.3,0.1,0.3c0.5-0.2,2.6,2.4,2.4,3c-0.1,0.5-0.1,0.5,0.2,0c0.5-0.7,2.4,0.7,4.3,3.1
		c0.7,0.9,1.6,1.6,2,1.7c0.3,0,1.3,0.3,2.1,0.7c0.8,0.4,1.9,0.7,2.5,0.7c1.8,0,4.5,0.8,6,1.9c3.8,2.5,4.5,3,5.2,3
		c0.4,0,1.4,0.3,2.2,0.6c1,0.4,3.4,0.6,7.7,0.7c3.9,0.1,6.6,0.3,7,0.6c0.5,0.3,2.6,0.5,5.2,0.5c7.8,0.1,16.7,0.9,17.6,1.4
		c0.3,0.2,2.1,0.5,4.1,0.6s4,0.4,4.7,0.5c1.3,0.3,3.5-0.3,9.9-2.8c3.2-1.2,4.5-1.5,6.4-1.5c2,0,3.2-0.3,5.8-1.3
		c1.9-0.7,4.6-1.6,6.2-1.9c2.7-0.5,5.6-1.7,7.4-3.2c0.5-0.4,1.1-0.7,1.4-0.7c0.6,0,4.1-3.6,4.9-5c0.3-0.6,1.2-2,2-3
		c1.9-2.6,2.9-4.4,3.6-6.6c0.3-1,0.9-2.5,1.4-3.3s0.9-1.6,0.8-1.9c-0.1-0.2,0.3-1.1,0.8-1.9s0.8-1.5,0.7-1.6
		c-0.1-0.1,0.1-0.9,0.5-1.7c0.4-0.8,1-2.6,1.2-4c0.3-1.4,0.7-2.8,0.9-3.1c0.3-0.4,0.4-1.5,0.2-3.6c-0.1-1.7,0-4.1,0.2-5.4
		c0.3-2,0.3-2.5-0.2-3.2c-0.5-0.8-0.5-0.9,0.2-1.8c0.4-0.5,0.7-1.5,0.7-2.1c0-1.4,0.5-2.4,1.9-4c0.6-0.6,1-1.3,0.9-1.6
		c-0.8-1.3-0.6-5.7,0.2-7c0.8-1.3,1.1-1.9,1.6-4.4c0.1-0.6,0.4-1.5,0.7-2.1c0.3-0.6,0.6-1.6,0.7-2.1c0.3-1.2,0.9-1,0.9,0.3
		c0,2.6,1.6,3.2,1.7,0.6c0.2-5.7,1.1-13.1,1.7-13.1c0.2,0,0.2,0.2,0.1,0.4c-0.1,0.2-0.1,0.4,0.2,0.4c0.3,0,0.4-1.9,0.4-5.5
		c0-3,0.1-11.7,0.3-19.4c0.1-7.6,0.2-15.9,0.2-18.4c0-2.9,0.1-4.5,0.3-4.3c0.2,0.1,0.3,0,0.2-0.3c-0.1-0.3,0-0.9,0.2-1.5
		c0.2-0.5,0.9-3.9,1.5-7.4s1.5-7,1.9-7.8s0.7-1.9,0.7-2.5c0-1.2,1-8.1,2-13.5c0.4-2,0.5-5.4,0.5-10.2v-7.2l-1.6-4.6
		c-0.9-2.5-2.3-6.4-3.2-8.7c-4.1-10.9-5-14.6-4.7-18.2c0.1-1.5,0.1-2.4-0.2-2.6c-0.2-0.1-0.3-0.6-0.2-0.9c0.1-0.4,0-0.7-0.1-0.7
		s-0.6-0.6-0.9-1.3c-0.7-1.6-0.7-5,0-5c0.3,0,0.6-0.2,0.7-0.3c0.3-0.5-0.2-1.5-0.7-1.5c-0.4,0-0.5-0.5-0.4-1.9
		c0.1-1.1-0.1-2.4-0.4-3.1c-0.5-1.1-0.5-1.3,0-1.7c0.8-0.7,0.6-2.3-0.6-4.6c-0.8-1.6-1.1-2.4-0.9-3.3s0-1.4-0.5-2.1
		c-0.6-0.7-0.7-1.3-0.5-2.1c0.2-0.8,0-1.5-0.4-2.1c-0.3-0.5-0.6-1.3-0.7-1.9c0-0.5-0.3-0.9-0.6-0.9c-0.3,0-0.5-0.2-0.5-0.6
		c0-0.3-0.2-0.6-0.4-0.6c-0.2,0-0.7-0.7-1.1-1.6s-1.1-1.8-1.5-2.1c-0.6-0.3-0.8-0.7-0.6-1.2c0.2-0.9-0.4-2.4-1.3-3.4
		c-0.4-0.4-0.6-0.8-0.6-1c0-0.3-0.7-1.3-1.8-2.4c-0.3-0.3-0.4-0.8-0.2-1.2c0.1-0.4,0.1-0.6,0-0.4c-0.2,0.1-0.5,0-0.8-0.3
		s-0.7-0.5-0.9-0.3c-0.2,0.1-0.4-0.2-0.6-0.6s-0.5-1-0.9-1.3c-0.3-0.2-0.8-1.2-1.1-2c-0.6-2-1-2.5-1.9-2.5c-0.4,0-0.7-0.2-0.7-0.5
		c0-1.6-2.4-5.3-3.6-5.4c-0.9-0.1-1.3-0.4-1.8-1.5c-0.4-0.8-1-1.6-1.5-1.9s-0.9-0.7-0.9-0.9c0-0.2-0.5-0.7-1.1-0.9
		c-0.6-0.3-1.4-0.9-1.7-1.5s-0.9-1.2-1.4-1.3c-1.1-0.4-1.5-1-0.8-1.5c1-0.7,0.3-2.3-1-2.5c-1.4-0.3-1.4-1.1,0-1.7
		c0.6-0.3,1.1-0.6,1.1-0.8c0-0.4-2.4-2.9-2.8-2.9c-0.8,0-0.9,0-0.9-0.5c0-0.3-0.3-0.7-0.7-0.9c-0.4-0.2-1-1.1-1.4-1.8
		s-1-1.5-1.5-1.7c-0.6-0.3-0.9-0.8-1.1-1.6c-0.2-1.1-0.4-1.2-1.3-1.2c-0.8,0-1.1-0.2-1.2-1.1c-0.2-0.8-0.4-1-0.9-0.9s-0.7,0-0.7-0.7
		s-0.2-0.9-1-1c-0.6-0.1-1.4-0.4-1.8-0.8c-0.4-0.4-1-0.7-1.2-0.7s-0.8-0.3-1.2-0.7s-1.3-0.8-2-1s-1.5-0.6-1.7-0.9
		c-0.5-0.8-0.2-0.9,0.9-0.1c0.8,0.5,0.9,0.5,1.5-0.1c0.7-0.8,0-1.9-1.2-1.9c-0.4,0-1-0.3-1.3-0.7c-0.7-0.8-3-1.7-3.5-1.3
		c-0.2,0.1-0.4-0.2-0.6-0.7c-0.2-0.9-1.1-0.9-1.8,0c-0.2,0.2-0.2,0.1-0.2-0.3c0.2-1-1.1-2-2.4-2c-0.6,0-1.1-0.1-1.1-0.3
		s-0.3-0.4-0.7-0.5s-0.7-0.5-0.7-1c0-0.9,0-0.9-1.3-0.4c-1.6,0.7-3.5,0.1-3.8-1.2c-0.1-0.6-0.4-1.1-0.7-1.1s-0.7-0.4-0.9-0.9
		c-0.4-0.7-0.9-1-2.2-1.1c-4.7-0.7-9.9-2.6-13.9-5.3c-1-0.7-2.5-1.3-3.2-1.5c-0.7-0.1-2.5-0.8-3.9-1.5s-3.7-1.5-5-1.8
		s-3.5-1-4.8-1.4C133.8-0.1,116.4-0.4,114.4,0.7 M148.9,11.6c0,0.8,0,0.8-0.5,0.1c-0.3-0.4-0.4-0.8-0.3-1
		C148.3,10.2,148.9,10.7,148.9,11.6 M173,15.7c0.1,0.9,1.4,1.3,1.8,0.6c0.4-0.6-0.3-1.4-1.2-1.4C173.1,14.8,172.9,15,173,15.7
		 M180.5,17.2c0.1,0.3,0.2,0.7,0.2,0.8s0.3,0.2,0.6,0.2c0.8,0,0.5-1.3-0.4-1.4C180.4,16.6,180.3,16.8,180.5,17.2 M142.4,35.6
		c0.1,0.2-0.1,0.4-0.6,0.4c-0.4,0-0.7-0.2-0.6-0.4c0.1-0.2,0.4-0.4,0.6-0.4S142.3,35.4,142.4,35.6 M132.9,37.4
		c-0.2,0.4-0.3,1-0.2,1.4c0.4,1.2-0.4,1.7-0.8,0.6c-0.4-0.9-0.3-1.1,0.4-1.9C133.3,36.5,133.5,36.4,132.9,37.4 M121.5,38.5
		c0,0.2-0.4,0.4-0.9,0.4s-1.2,0.1-1.6,0.2c-0.5,0.2-0.6,0.1-0.3-0.2C119.3,38.3,121.5,38,121.5,38.5 M101,40.3
		c0.1,0.3-0.2,0.5-0.6,0.5c-0.8,0-1.3-0.5-0.9-0.9C99.9,39.5,100.8,39.8,101,40.3 M115.5,40.3c0,0.4-1.1,1.3-1.3,1.1
		c-0.3-0.3,0.3-1.4,0.8-1.4C115.3,40,115.5,40.2,115.5,40.3 M195.9,42.8c-0.5,0.5-0.8,0.1-0.5-0.7c0.2-0.5,0.3-0.5,0.5-0.1
		C196.1,42.2,196.1,42.6,195.9,42.8 M121.9,43.9c0.1,0.1,0.1,0.5,0,0.8c-0.2,0.4-0.3,0.5-0.5,0.1C120.9,43.9,121.3,43.3,121.9,43.9
		 M101.5,44.5c-0.2,0.3-0.4,0.9-0.5,1.4c-0.1,0.7-0.4,1-1.5,1.2c-1.1,0.3-1.4,0.5-1.5,1.3l-0.1,1l-0.8-0.8c-0.6-0.6-1-0.8-1.8-0.6
		c-0.9,0.2-1.1,0.6-1.1,1.9c0,0.3-0.1,0.5-0.3,0.5s-0.3-0.2-0.3-0.4s-0.3-0.4-0.7-0.4s-0.7-0.2-0.7-0.5c0-1.4-1.5-1-2.1,0.5
		c-0.9,2.1-1.4,2.5-2.6,2.5c-0.9,0-1.6,0.4-2.6,1.4C83.3,55.1,83,55.1,83,54c0-0.6,0.4-1.1,1.2-1.6c0.7-0.4,1.9-1.3,2.7-2.1
		c0.8-0.8,1.7-1.4,2.1-1.4c0.3,0,1-0.7,1.4-1.5c0.9-1.6,1.5-1.9,1.5-0.8c0,0.9,3,1.1,3.9,0.2c0.3-0.3,1-0.5,1.6-0.5
		c1.6,0.1,1.8,0,3-1.1C101.4,44.1,102.3,43.7,101.5,44.5 M200,45.3c0,0.7-0.1,0.7-0.4,0.3c-0.5-0.7-0.5-1.1,0-1.1
		C199.8,44.5,200,44.8,200,45.3 M203.7,45.6c0.3,0.6,0.3,0.7-0.2,0.5c-0.3-0.1-0.6-0.4-0.6-0.7C202.9,44.6,203.2,44.7,203.7,45.6
		 M104.4,46.3c0.4,0.2,0.3,0.4-0.3,0.5c-0.5,0.1-0.8,0.5-0.8,1s-0.1,0.7-0.2,0.6c-0.3-0.3,0.2-2.5,0.5-2.5
		C103.8,45.9,104.1,46.1,104.4,46.3 M212.6,48.2c0,0.7,0.1,0.7,0.6,0.3c0.3-0.3,0.6-0.6,0.6-0.8c0-0.2-0.2-0.3-0.6-0.3
		S212.6,47.8,212.6,48.2 M207.4,49.3c0.6,0.5,0.7,0.9,0.5,1.1s-0.6,0-1-0.7C206.1,48.3,206.2,48.3,207.4,49.3 M74.4,53.2
		c0,0.3-0.3,0.6-0.6,0.6c-0.5,0-0.5-0.1-0.1-0.6c0.3-0.3,0.5-0.6,0.6-0.6S74.4,52.9,74.4,53.2 M71.2,60.2c-0.2,0.9-0.5,1.1-0.9,0.7
		c-0.2-0.2,0.5-1.6,0.9-1.6C71.3,59.3,71.3,59.7,71.2,60.2 M67,61.7c0,0.3-0.3,0.6-0.6,0.6c-0.5,0-0.5-0.1-0.1-0.6
		c0.3-0.3,0.5-0.6,0.6-0.6S67,61.4,67,61.7 M58.6,64.6c0.1,0.3,0.8,0.7,1.4,0.9c1.1,0.3,1.2,0.4,0.4,0.6c-0.5,0.1-1,0.8-1.2,1.5
		c-0.6,1.8-1.6,2.6-2.3,1.8c-0.3-0.3-0.8-0.7-1.3-0.9c-0.7-0.3-0.7-0.3,0.1-0.3c0.5,0,0.8-0.2,0.8-0.4c0-0.2,0.5-0.5,1.1-0.7
		c1.5-0.5,1.3-1.6-0.6-2.6c-0.7-0.4-0.7-0.4,0.2-0.4C58,64.1,58.5,64.3,58.6,64.6 M64.2,65.6c-0.3,1.1-1.2,1.8-1.2,0.9
		c0-0.7,0.6-1.6,1.2-1.6C64.2,64.8,64.3,65.2,64.2,65.6 M51.5,72.8c0,0.9-0.6,1-1,0.2c-0.4-0.6-0.3-0.7,0.3-0.7
		C51.1,72.2,51.5,72.5,51.5,72.8 M49.3,73.3c0.1,0.4,0.5,0.7,0.8,0.7s0.5,0.2,0.4,0.4c-0.1,0.2-0.5,0.4-0.8,0.4c-0.7,0-2,1.1-2,1.7
		c0,0.3,0.4,0.5,0.9,0.5s0.8,0.2,0.7,0.4c-0.1,0.2-0.7,0.4-1.3,0.4c-2.3,0-3.4,0.5-5.6,2.6c-1.3,1.2-2.4,2.2-2.6,2.2
		s-0.9,0.5-1.5,1.1s-1.3,1.1-1.5,1.1c-0.6,0-1.8,1.3-1.8,2c0,0.6-0.8,1.7-1.3,1.7c-1.4,0,1.4-3.7,3.4-4.5c0.6-0.2,0.8-0.5,0.6-1
		c-0.2-0.5,0.1-0.7,1-1c0.7-0.2,1.4-0.7,1.6-1.2c0.2-0.4,0.8-0.9,1.4-1s1.6-0.7,2.2-1.3c0.6-0.6,1.6-1.4,2.2-1.7
		c0.6-0.3,1.1-0.7,1.1-0.9c0-0.2,0.4-0.9,0.8-1.4c0.4-0.6,0.7-1.2,0.5-1.5s-0.1-0.4,0.1-0.4C49,72.6,49.2,72.9,49.3,73.3 M1.5,88.2
		c0,1.3,0.1,1.9,0.5,1.9c0.8,0,0.9-2.5,0.2-3.2C1.6,86.4,1.6,86.5,1.5,88.2 M108.5,88.2c0,0.2-0.2,0.4-0.6,0.4
		c-0.3,0-0.6-0.2-0.6-0.4c0-0.2,0.2-0.4,0.6-0.4C108.2,87.8,108.5,88,108.5,88.2 M8.3,89.7C8.1,90.3,8,90.4,7.7,90
		c-0.2-0.3-0.1-0.7,0.1-0.9C8.5,88.4,8.6,88.7,8.3,89.7 M161.5,89.8c8,0.2,9.3,0.3,10.9,0.9c0.6,0.2,1.9,0.5,2.9,0.6s2.4,0.4,3,0.7
		c0.6,0.3,2,0.6,3.1,0.7s2.1,0.3,2.2,0.5c0.1,0.2,1.3,0.6,2.6,0.8c1.3,0.3,2.8,0.7,3.4,1s1.1,0.4,1.2,0.3c0.3-0.3,3.6,1,3.6,1.4
		c0,0.2,0.8,0.4,1.8,0.5s2.4,0.6,3,1.1c0.7,0.5,1.7,0.9,2.2,0.9c0.6,0,1.2,0.2,1.3,0.5c0.2,0.3,0.9,0.8,1.7,1
		c0.8,0.3,1.4,0.6,1.5,0.8c0,0.2,0.8,0.9,1.6,1.4c0.8,0.6,1.6,1.2,1.6,1.4c0.1,0.2,0.3,0.3,0.6,0.3c0.3,0,0.6,0.2,0.7,0.5
		s0.7,0.6,1.3,0.7c0.7,0.1,1.1,0.5,1.1,0.8s0.5,0.9,1.1,1.2s1.1,0.8,1.1,1.1s0.9,1.4,1.9,2.5c4,4.1,5.9,6.4,6.1,7.4
		c0.1,0.6,0.3,1,0.5,1s0.5,0.7,0.8,1.5c0.2,0.8,0.7,1.5,0.9,1.5c0.8,0,2.2,1.6,2.7,3c1,3.1,1.9,7.3,1.8,8.4c0,0.7,0.1,1.4,0.3,1.5
		c0.2,0.1,0.4,0.5,0.4,0.8s0.2,1.2,0.4,1.9c0.2,0.8,0.2,1.4,0.1,1.4c-0.3,0-1.5-1-1.5-1.2c0-1.8-4-3.4-5.7-2.3c-1.5,1-2.9,0.6-3.6-1
		c-0.5-1.1-1-1.5-2.5-2c-1-0.3-1.9-0.8-1.9-1c0-0.4-1.4-0.4-1.6,0c-0.3,0.5-2.4-0.4-2.4-1s-1.1-0.6-2,0c-0.4,0.3-1.1,0.5-1.5,0.5
		s-1.6,0.4-2.6,0.9c-1.3,0.6-2.6,0.9-4.4,0.9c-3.8,0.1-8.7,1.5-8.7,2.4c0,0.2-0.2,0.3-0.6,0.3c-0.3,0-0.6,0.1-0.6,0.3
		s-0.5,0.4-1.1,0.5c-0.9,0.1-1,0.1-0.7-0.5c0.6-1.2,0.4-1.5-1-1.4c-0.7,0.1-1.3,0-1.3-0.1c0-0.2-0.2-0.3-0.6-0.3
		c-0.3,0-0.6,0.2-0.6,0.6c0,0.3,0.3,0.6,0.6,0.6c1,0-0.5,0.9-2,1.3c-1.5,0.3-2.6,1.5-2.9,3.1c-0.3,1.6,0.4,2.2,1.4,1.2
		c0.7-0.6,0.7-0.6,0.1,0.4c-0.4,0.6-0.8,1-1,1s-0.3,0.4-0.1,0.9c0.2,0.9,0.2,0.9-1.5,0.7c-1-0.1-2-0.2-2.3-0.2s-1.3-0.2-2.2-0.4
		s-3.4-0.4-5.5-0.5c-4.9-0.2-7-1.8-5.1-3.7c0.9-0.9,0.6-1.6-0.8-1.8c-0.8-0.1-1.3-0.5-1.3-0.8s-0.5-0.7-1.2-0.8
		c-0.9-0.2-1.2-0.5-1.1-1.1c0.1-0.6-0.1-0.8-0.9-0.9c-1-0.1-1-0.2-0.9-1.5c0.1-1.5-0.4-2.6-1.2-2.2c-0.7,0.3-1.1-0.5-0.6-1.2
		c0.6-0.7,0.1-2.2-0.6-1.9c-0.3,0.1-0.7-0.1-1-0.5c-0.6-0.8-2.4-1.5-4.1-1.5c-0.7,0-1.1-0.2-1.2-0.7c-0.1-0.4-0.4-0.7-0.6-0.7
		c-1.1,0-2,0.5-2.5,1.3c-0.6,1-1.7,1.3-1.3,0.2c0.6-1.4,0.6-1.8-0.2-2.2c-0.6-0.4-1-0.4-1.8,0.1c-1.1,0.6-2.8,0.2-3.4-0.7
		c-0.3-0.4-1.4,0.1-1.7,0.8c-0.1,0.4,0.7,1.4,1.3,1.6c0.5,0.2,0.9,1.8,0.5,1.8c-0.2,0-0.4-0.3-0.4-0.6s-0.3-0.8-0.8-1.2
		c-0.4-0.4-0.9-1.2-1.1-1.9c-0.7-2.6-2.5-2.4-2.6,0.2c0,1.8-0.4,2.1-1.4,1.1c-0.5-0.5-1.2-0.9-1.6-0.9c-0.4,0-0.7-0.1-0.8-0.3
		c-0.5-1.1-4.8-2.2-4.8-1.2c0,0.2-0.5,0.3-1.1,0.2s-2.3,0.3-3.9,1c-2,0.8-3,1-3.5,0.7c-0.4-0.2-1.5-0.3-2.4-0.3c-1,0-2-0.2-2.2-0.4
		s-0.6-0.3-1-0.1c-0.3,0.2-1.1,0.3-1.7,0.2c-1.1-0.1-2.8,0.5-2.8,1c0,0.7-1.6,0.3-1.7-0.4c-0.3-1.1-1.1-1.2-2.1-0.4
		c-1.1,0.8-2.6,1-12.8,1.3c-12.5,0.4-11.5,0-12.4,4c-0.4,1.7-0.7,3.5-0.8,4c-0.2,3.3-1.4,5.4-3,5c-1.1-0.3-2,0.4-2,1.4
		c0,0.7,0.3,0.7,2.7,0.7c3.6-0.1,3.6-0.1,3.6,0.4c0,0.2-0.4,0.3-0.9,0.2c-0.6-0.1-1.2,0-1.8,0.4c-0.5,0.4-1.3,0.8-1.9,1.1
		c-0.5,0.2-1.6,1-2.4,1.6c-0.8,0.7-1.2,1-1,0.7c0.5-0.5,0-1.5-0.7-1.5c-0.2,0-0.7-0.3-1.1-0.7c-0.4-0.4-1-0.7-1.3-0.7
		s-0.6-0.2-0.6-0.5c0-1.8-7.6-1.2-11,1c-1.7,1.1-3.9,1.9-5.7,2.3c-0.8,0.1-1.4,0.4-1.4,0.6c0,0.2-0.2,0.4-0.6,0.4
		c-0.3,0-0.6,0.1-0.6,0.3s-0.3,0.4-0.7,0.5c-1.5,0.4-0.9-1.4,0.6-2.2c1.4-0.7,2.6-3.8,1.6-4.1c-0.2-0.1-0.2-0.4,0-0.7s0.6-1.2,0.9-2
		s0.8-1.4,1-1.4s1.3-0.6,2.4-1.3s2.1-1.3,2.3-1.3c1.5,0,3.5-1.9,2.8-2.8c-0.4-0.5,2.9-3.6,5.5-5c1.1-0.6,1.7-1.2,1.8-1.8
		s0.6-1,1.6-1.4c0.8-0.3,1.8-0.9,2.1-1.4c0.8-1,3.1-2.7,5.3-4.1c0.9-0.6,1.8-1.3,1.9-1.5c0.2-0.3,0.7-0.6,1.3-0.7
		c0.6-0.1,1.4-0.8,1.9-1.6c1.3-1.9,2.5-2.9,4.4-3.9c0.9-0.4,2.2-1.2,2.8-1.7s1.3-0.9,1.4-0.9s1.3-0.5,2.6-1.1s2.5-1.1,2.7-1.1
		s0.6-0.2,0.8-0.5c0.7-0.7,5.6-3,8.8-4.2c1.5-0.5,3.1-1.2,3.5-1.5s1.1-0.5,1.5-0.5s1.4-0.3,2.2-0.7c2.7-1.4,11.6-4.2,16.5-5.2
		c2-0.4,2.7-0.5,6.7-0.9c1.1-0.1,2.5-0.3,3.1-0.4s2.2-0.3,3.5-0.4s2.7-0.4,3-0.6s2.2-0.3,4.3-0.1C152.2,89.6,157.3,89.8,161.5,89.8
		 M215.5,91.2c0,0.7-0.1,0.7-0.4,0.3c-0.5-0.7-0.5-1.1,0-1.1C215.4,90.4,215.5,90.8,215.5,91.2 M90.9,93.3c-0.5,1.1-1.5,1.7-2,1.3
		c-0.1-0.1,0.1-0.5,0.5-0.8s0.9-0.9,1-1.3s0.4-0.6,0.6-0.5C91.3,92.1,91.2,92.7,90.9,93.3 M29.7,92.9c-0.1,0.4-0.7,1.1-1.3,1.5
		c-0.7,0.5-1.1,1.1-1.1,1.7c0,1.5-0.4,2.1-1.4,2.1c-0.6,0-1.4,0.4-1.9,0.9c-1,1.1-1.5,1.2-1.5,0.2s1.3-2,2.2-1.7
		c0.4,0.1,0.8,0.1,0.8-0.2c0-0.2,0.2-0.4,0.5-0.4c0.6,0,1.1-1.1,0.8-1.9c-0.1-0.3,0.2-0.8,0.6-1.1c0.4-0.3,1.1-0.8,1.4-1.2
		C29.6,92.1,29.9,92.1,29.7,92.9 M1.5,103.4c-0.4,1.8,0.4,2,1.2,0.3c0.7-1.4,0.7-1.7-0.2-1.7C2.1,102,1.8,102.4,1.5,103.4
		 M19.2,103.8c-0.2,0.7-0.3,1.2-0.3,1.3c0,0-0.5,0.4-1.2,0.7l-1.2,0.6l1-1.1c0.5-0.6,1.2-1.4,1.4-1.9
		C19.4,102.2,19.6,102.4,19.2,103.8 M15,108.8c-0.3,0.6-0.9,1.4-1.4,1.8l-0.8,0.7l0.7-1.1C14.9,108,15.9,107.1,15,108.8 M11.7,114.7
		c-0.4,0.4-0.7-0.2-0.4-0.9c0.3-0.6,0.3-0.6,0.4,0C11.8,114.2,11.8,114.6,11.7,114.7 M5.5,123.3c0.3,0.5,0.2,0.8-0.2,1.2
		c-0.5,0.4-0.5,0.3-0.5-0.7C4.8,122.4,5,122.3,5.5,123.3 M114.4,125.8c1,0.6,0.7,0.7-0.6,0.3c-0.5-0.1-0.8-0.4-0.8-0.6
		C112.9,125.1,113.3,125.1,114.4,125.8 M120,127l0.9,0.3H120c-0.5,0-1.3-0.1-1.7-0.3l-0.7-0.3h0.7C118.7,126.7,119.5,126.9,120,127
		 M126.1,128c1.7,0.1,6,1.1,6.3,1.4c0.2,0.2-0.1,0.2-6.1-0.7c-2.3-0.4-4-0.8-3.7-0.9c0.3-0.1,0.9-0.1,1.3,0
		C124.3,127.8,125.3,127.9,126.1,128 M122.4,129.8c0.4,0.3,1.3,0.5,2,0.5s1.8,0.1,2.4,0.2c0.6,0.2,1.8,0.4,2.6,0.5s1.7,0.4,2,0.8
		c0.6,0.6,0.5,0.6-3.9-0.3c-1.2-0.2-2.8-0.5-3.5-0.5s-2.2-0.2-3.3-0.4l-2-0.3l1.3-0.5c0.7-0.3,1.4-0.5,1.5-0.5
		C121.6,129.3,122,129.5,122.4,129.8 M221.3,136c-0.1,0.2-0.2,0.5,0,0.6c0.3,0.3,1.3-0.2,1.3-0.6C222.6,135.4,221.6,135.5,221.3,136
		 M54.5,139.7c-1,2.2,0.5,3.1,2.2,1.4c0.8-0.8,1-1.5,0.4-1.5c-0.2,0-0.2-0.3-0.1-0.7C57.3,137.3,55.2,138,54.5,139.7 M226,139.1
		c0.1,0.4,0,0.6-0.5,0.6c-0.7,0-0.9-0.4-0.5-0.9C225.4,138.4,225.8,138.5,226,139.1 M151.4,139.9c0.2,0.7-0.5,0.5-0.8-0.1
		c-0.1-0.4-0.1-0.5,0.2-0.4C151,139.4,151.3,139.7,151.4,139.9 M84.8,143c0,0.4-0.5,0.4-1.2-0.2c-0.9-0.7-0.8-1,0.3-0.5
		C84.4,142.5,84.8,142.9,84.8,143 M10.5,143.2c0.1,0.3,0.2,0.7,0.1,0.8c-0.3,0.3-1-0.3-1-0.9C9.6,142.4,10.2,142.5,10.5,143.2
		 M104.2,149.5c-0.5,0.7-0.9,0.9-1.4,0.7c-0.4-0.1-0.9-0.2-1.2-0.2c-0.7,0-0.2-0.4,1.1-0.9C104.6,148.3,104.9,148.4,104.2,149.5
		 M138.5,150.2c0,0.3-0.1,0.6-0.3,0.7c-0.4,0.2-0.8-0.7-0.5-1.1C138.1,149.5,138.5,149.6,138.5,150.2 M100.3,151.3
		c0,0.5-0.1,0.9-0.3,0.9c-0.6,0-3,2.5-3,3.1c0,2.1-1.7,3.3-1.9,1.3c-0.2-2.5,0-3,0.9-2.8c0.7,0.2,0.9,0.1,1.2-0.6
		C97.9,151.1,100.3,149.6,100.3,151.3 M159.2,154.5c-0.2,0.4-0.3,0.7-0.2,0.7s-0.2,0.8-0.7,1.8c-1,2-1.8,4-1.6,4
		c0.1,0-0.2,0.5-0.6,1.1c-0.6,0.9-0.6,1.1-0.2,1.4c0.4,0.2,0.4,0.5,0.1,1.3c-0.2,0.6-0.8,2-1.2,3.1c-1.2,3-1.4,3.4-2.1,4.6
		c-1.2,2.1-2.5,3.5-3,3.5c-0.6,0-1.2,0.8-2.9,3.7c-1.2,1.9-0.3,3.3,1.1,1.7c0.2-0.3,1.2-1.3,2.1-2.3c2.2-2.4,6.1-8,7.2-10.4
		c0.5-1,1-1.9,1.1-2c0.8-0.8,2.8-10,2.6-12.3C160.7,153.5,159.7,153.5,159.2,154.5 M247.5,157.1c0.6,2.7,0.5,11.7-0.1,13.5
		c-0.2,0.6-0.3,1.5-0.3,2s-0.2,1.7-0.6,2.7c-1.7,4.8-2,7.4-1.1,7.8c0.5,0.2,0.5,0.3,0.2,0.7c-0.2,0.2-0.4,0.9-0.4,1.4
		c0,1.7-1.5,3.1-2.5,2.5c-0.7-0.4-0.9-0.4-1.3,0.1c-1.6,2.1-9.1,6.6-12.2,7.3c-5.3,1.3-16.2,1.2-17.5-0.2c-0.3-0.3-0.9-0.5-1.4-0.5
		s-1.2-0.2-1.5-0.6c-0.3-0.3-0.8-0.6-1-0.6c-1.9,0-7.9-5.8-9.8-9.5c-0.6-1.1-1.2-2-1.3-2c-0.2,0-0.3-0.2-0.3-0.5
		c0-0.7-1.9-4.4-2.3-4.6c-0.2-0.1-0.4-0.8-0.5-1.6s-0.4-1.4-0.5-1.4c-0.2,0-0.4-0.6-0.5-1.4c-0.1-0.8-0.4-2.1-0.6-2.9
		c-0.2-0.9-0.3-1.6-0.1-1.8c0.2-0.2,0.5,0.4,0.7,1.3c1.1,4.1,2,5.7,3.2,5.3c0.3-0.1,0.4,0.1,0.2,0.6c-0.2,0.8,1.5,1.2,1.9,0.4
		c0.2-0.3,0.5-0.2,1.1,0.2c0.5,0.3,1.1,0.6,1.3,0.6c0.2,0,0.9,0.4,1.3,0.8c0.7,0.6,1.4,0.9,3,0.9c1.2,0,3.2,0.3,4.5,0.5
		c8.5,1.4,10.7,1.2,8.3-0.7c-1.2-1,0.1-1.2,2.2-0.4c3.2,1.3,4.1-0.2,1.2-2.1c-0.9-0.6-1.7-1.2-1.9-1.5c-0.2-0.3-0.7-0.5-1.2-0.5
		s-1.1-0.2-1.3-0.6c-0.6-0.8-1.2-0.7-1.8,0.2c-0.6,0.9-4,0.7-6.7-0.5c-1.6-0.7-1.6-0.8-0.9-1.1c0.5-0.2,0.9-0.7,1-1
		c0.2-0.5,0.4-0.6,1-0.4c0.4,0.2,1.1,0.2,1.6,0c0.4-0.2,1.1-0.2,1.5-0.1c0.4,0.1,2.1,0,3.6-0.2c3.9-0.6,4.5-0.3,4.2,2.4
		c-0.2,2.2,0.7,3.5,2.6,3.5c0.5,0,0.9,0.2,0.9,0.4s0.4,0.4,1,0.4s1.3,0.3,1.7,0.6c1.1,1,2.1-0.2,1.2-1.5c-0.3-0.5-0.8-1-1-1
		s-0.3-0.2-0.3-0.4s0.4-0.2,1,0.1c0.8,0.4,1,0.3,1.4-0.2c0.8-1.1,0.9-0.7,0.9,7.4c0,7.4,0.3,11.9,0.9,12.5c0.7,0.7,4.8-1.7,7.3-4.3
		c0.7-0.7,4.8-6.9,4.8-7.3c0-0.1,0.4-1.1,1-2.1c0.5-1,1.1-2.5,1.3-3.2c0.2-0.7,0.6-2.5,0.9-3.9s0.8-3.5,1-4.6
		c0.5-2.4,0.4-10.5,0-12.1c-0.2-0.6-0.2-1.2-0.1-1.3C246.9,154.3,247,154.5,247.5,157.1 M125.5,155.6c0,0.4-0.2,0.7-0.4,0.7
		s-0.4-0.3-0.4-0.7s0.2-0.7,0.4-0.7C125.4,154.8,125.5,155.2,125.5,155.6 M191.2,159.7c-0.1,2.2-0.2,3.9-0.3,3.9
		c-0.6-0.6-0.8-6-0.3-7C191.4,155.1,191.4,155.2,191.2,159.7 M124.1,164.8c0,0.4-0.7,0.9-1,0.6c-0.3-0.3,0.2-1,0.6-1
		C123.9,164.5,124.1,164.6,124.1,164.8 M191.8,166.3v0.9l-0.3-0.9c-0.5-1.4-0.5-2.2,0-1.5C191.7,165.1,191.8,165.8,191.8,166.3
		 M230.1,168.7c-0.3,0.8-0.4,1.5-0.3,1.7c0.1,0.1,0,0.5-0.2,0.8c-0.4,0.6-0.1-4.3,0.3-5C230.4,165.3,230.6,167.3,230.1,168.7
		 M154.8,182.6c0,0.5,0.2,0.7,0.5,0.6c0.3-0.1,0.5-0.4,0.5-0.6c0-0.3-0.2-0.6-0.5-0.6C155,181.9,154.8,182.1,154.8,182.6
		 M114.7,188.4c-0.5,0.5-0.2,1.2,0.5,1c0.4-0.1,0.7-0.4,0.7-0.7C115.9,188.1,115.1,188,114.7,188.4 M32.8,191.2
		c-1.1,3.6-1.1,13.4,0,13.9c1.1,0.4,1.5-1.7,1.2-7.1c-0.1-1.4,0.3-5,0.5-5.6c0.3-0.8-0.2-1.6-0.9-1.6
		C33.2,190.8,32.9,191,32.8,191.2 M35,203.6c-0.1,0.3-0.1,0.9,0.2,1.3c0.4,0.8,0,2-0.8,2.3c-0.4,0.1-0.4,0.4,0,1.1
		c0.4,0.8,0.3,1-0.3,1.4c-0.8,0.5-1.1,4.5-0.3,4.5c0.6,0,1.6-1.9,1.6-3.2c0-0.7,0.1-1.3,0.3-1.3c0.1,0,0.5-0.5,0.8-1.2
		c0.6-1.1,0.6-1.9,0-4.7C36.2,202.9,35.4,202.7,35,203.6 M27.2,206.3c-0.7,1.2,0.2,4.1,1.3,4.1c0.7,0,1-1,0.8-3.1
		C29.2,206.1,27.7,205.5,27.2,206.3 M20.7,210.8c0,1,1.3,2.2,2.2,2.2c0.4,0,0.7,0.2,0.7,0.4s0.3,0.4,0.7,0.4c1,0,1-1.7,0-2
		c-0.4-0.1-1-0.5-1.4-1C22.2,209.8,20.7,209.8,20.7,210.8 M159.1,211.8c-0.8,0.3-1.5,0.7-1.6,0.9s-0.3,0.3-0.6,0.3
		c-0.8,0-3.2,2.4-3.2,3.2c0,1.4,2,1.7,4.3,0.6c3.3-1.6,6.4-2.4,9.3-2.3c1.9,0.1,3-0.9,2.1-1.8C168,211.3,161.6,210.7,159.1,211.8
		 M28,212.4c-0.2,0.5,0,1,0.6,1c0.2,0,0.3-0.3,0.3-0.7C28.9,211.8,28.3,211.6,28,212.4 M126.3,216.2c-1.5,0.6-2.6,1.8-2.6,2.8
		c0,0.4-0.3,0.6-0.6,0.6s-0.8,0.4-1.1,0.9s-1,1.1-1.5,1.4c-1.2,0.6-1.3,2.2-0.2,2.2c1.5,0,4.2-2.2,3.9-3.3c-0.2-1,1.4-2.4,3.6-3.1
		c0.7-0.3,0.9-2.1,0.2-2.1C127.8,215.6,127,215.9,126.3,216.2 M200.5,216.5c-0.1,0.3-0.1,0.7,0,0.7c0.3,0.3,1.4-0.3,1.4-0.8
		C201.8,215.8,200.7,215.8,200.5,216.5 M161.4,223c-0.5,1-0.3,1.1,1.2,1.2c0.9,0,1.3-0.1,1.4-0.6C164.3,222.2,162.1,221.7,161.4,223
		 M117.1,224c-0.3,0.7-0.4,1.4-0.3,1.6c0.4,0.7,1.6,0.4,1.8-0.5c0.1-0.5,0.3-1.2,0.4-1.6C119.5,222.1,117.7,222.6,117.1,224
		 M159.8,225.8c-0.3,0.9,0.6,1.8,1.6,1.4c0.6-0.2,0.8-0.5,0.7-1.1C162,225.1,160.2,224.8,159.8,225.8 M236.8,227.6
		c-0.3,0.8,0.7,1.8,1.7,1.5s1-0.9,0.1-1.5C237.7,226.9,237,226.9,236.8,227.6 M109.8,228.2c-0.1,0.2-0.2,0.5,0,0.6
		c0.3,0.3,1.3-0.2,1.3-0.6C111.1,227.7,110.1,227.7,109.8,228.2 M197.8,229.5c0,1.8,1.6,3.5,2.6,2.9c0.4-0.2,0.4-1.6,0-1.6
		c-0.2,0-0.4-0.4-0.6-0.8C199.3,228.9,197.8,228.6,197.8,229.5 M153.6,232.3c0.1,0.7-1,1.9-1.4,1.6c-0.4-0.2-0.3-1.2,0.2-1.9
		C152.7,231.3,153.5,231.6,153.6,232.3 M147,232.9c0,0.5,0.2,0.8,0.6,0.8c0.3,0,0.5-0.3,0.5-0.6C147.9,232.2,147,232,147,232.9
		 M195.8,232.7c-0.3,0.7,0.7,2.1,1.5,2.1c0.4,0,0.5-0.2,0.3-1C197.2,232.4,196.2,231.7,195.8,232.7 M220.3,233.2
		c0,0.3,0.2,0.8,0.3,1.2c0.2,0.4,0.5,1.3,0.8,2.2c0.9,3.1,2.1,3.2,1.6,0.2c-0.1-0.9-0.2-2.2-0.2-2.7c0-0.7-0.2-1-0.8-1.2
		C220.8,232.5,220.3,232.6,220.3,233.2 M243,236.4c-0.3,0.6-0.4,0.4-0.6-1.2c-0.3-2.5,0.2-3.5,0.6-1.2
		C243.2,235,243.2,236,243,236.4 M216.3,233.5c0,0.3,0.2,0.5,0.6,0.3c0.3-0.1,0.6-0.4,0.6-0.5c0-0.2-0.2-0.3-0.6-0.3
		C216.5,233,216.3,233.2,216.3,233.5 M235.3,234.5c-0.3,0.5,0.1,1.1,0.8,1.1c0.3,0,0.5-0.3,0.5-0.7
		C236.6,234.1,235.8,233.8,235.3,234.5 M201.7,235.9c0.1,0.4,0.5,0.7,0.9,0.7c0.9,0,0.9-0.6,0-1.1
		C201.6,235,201.5,235.1,201.7,235.9 M128.3,236.8c-1.2,1-1.9,4.7-0.9,4.7c0.8,0,1.3-0.5,1.6-1.5c0.2-0.5,0.6-1.1,1-1.4
		c0.9-0.6,0.8-2.4-0.1-2.6C129.6,236,128.9,236.3,128.3,236.8 M187.2,236.7c0.4,0.4,0.6,0.7,0.5,0.7s-0.6-0.3-1-0.7
		c-0.5-0.4-0.7-0.7-0.5-0.7C186.4,235.9,186.8,236.3,187.2,236.7 M218.2,237.3c0.2,1,1.4,1.1,1.4,0.1c0-0.5-0.2-0.8-0.8-0.8
		C218.3,236.7,218.1,236.9,218.2,237.3 M49.1,238.2c-0.1,0.2,0.1,0.4,0.5,0.4s0.8-0.2,0.8-0.4c0-0.2-0.2-0.4-0.5-0.4
		C49.5,237.8,49.2,238,49.1,238.2 M213.7,241.6c0.4,1.3,0,1.3-1.1-0.2c-1-1.2-1.3-2.9-0.6-3.3C212.4,237.8,212.8,238.8,213.7,241.6
		 M242.6,240.3c0,2.9,0,3.1-0.4,3.1c-0.2,0-0.4-0.8-0.4-1.8c0-1.1-0.2-2-0.5-2.3c-0.4-0.4-0.4-0.5,0.3-0.9
		C242.6,237.8,242.6,237.8,242.6,240.3 M199.4,239.1c0.4,0.9,0,1-0.5,0.2c-0.2-0.4-0.3-0.8-0.1-0.8
		C199,238.5,199.3,238.8,199.4,239.1 M121.5,240.7c0,0.5-1.1,1.3-1.4,1c-0.3-0.3,0.6-1.4,1-1.4C121.3,240.4,121.5,240.5,121.5,240.7
		 M113.5,242.3c-0.3,0.9,0,1.3,0.7,1s0.8-1.7,0-1.7C114,241.5,113.6,241.8,113.5,242.3 M215.4,244.5c0.5,1.2-0.1,1.8-0.6,0.7
		c-0.5-0.9-0.5-2.6-0.1-2.1C214.9,243.4,215.2,244,215.4,244.5 M112.4,244.3c-0.5,0.5-0.2,1.2,0.4,1.2c0.9,0,1.2-0.3,0.9-1
		C113.6,244.1,112.9,243.9,112.4,244.3 M227.8,245.2c0,0.5,0.2,0.7,0.5,0.6s0.5-0.4,0.5-0.6c0-0.3-0.2-0.6-0.5-0.6
		C227.9,244.5,227.8,244.7,227.8,245.2 M57.1,246.8c-1.3,0.6-0.8,2.1,0.7,2.1c0.9,0,1.1-0.5,0.8-1.6
		C58.4,246.2,58.3,246.2,57.1,246.8 M184.6,248.4c1.8,0.6,3.3,1.7,6.1,4.1c1.3,1.1,5.2,2.5,5.9,2.1c0.1-0.1,0.3,0.1,0.5,0.4
		c0.1,0.3,0.5,0.6,0.8,0.6s1.2,0.6,1.9,1.3c0.7,0.7,1.7,1.3,2,1.3c0.4,0,0.9,0.1,1.1,0.1s0.6,0.4,0.8,0.8c0.2,0.4,0.5,0.8,0.7,0.9
		c0.3,0.2,0.9,2.7,1.2,4.8c0.1,0.9,0.5,1.5,1.1,1.8c1.2,0.6,1.2,1.1,0,0.8c-2.4-0.5-4.1,1.5-2,2.2c1.3,0.5,1.3,0.7,0.5,2.1
		c-0.6,1.1-0.2,4.2,0.7,5.4c0.2,0.3,0,0.3-0.8,0.2c-1.4-0.2-2,1.4-1,2.5c0.3,0.4,0.6,1,0.6,1.4s0.7,1.3,1.6,2
		c3.3,2.7,4.6,4.3,4.9,5.9c0.2,1,0.5,1.7,1.1,2.1c0.5,0.4,0.8,0.8,0.7,1.1c-0.2,0.5-0.3,0.5-0.8,0c-0.9-0.8-1.2-0.7-1.1,0.3
		c0.1,0.5,0.5,1,1,1.2s0.8,0.6,0.8,0.9c0,1.4,0.9,2,2.3,1.4c1.1-0.4,1.4-0.4,1.9,0c0.8,0.6,0.7,1-0.2,1.2c-1,0.3-0.9,1.1,0.2,2.2
		c0.9,0.9,1.2,1.8,0.6,1.8c-0.2,0-1-0.7-1.8-1.5c-1.8-1.8-2.3-1.8-2.6-0.4c-0.3,1.3-1.4,1.4-1.5,0.1c-0.1-1-1-1.7-1.7-1.5
		c-0.9,0.3-0.7,1.3,0.6,2.5c0.6,0.6,1.1,1.3,1.1,1.5s0.1,0.3,0.3,0.2c0.2-0.1,0.5,0,0.8,0.3c0.3,0.4,0.3,0.6,0,0.8
		c-0.7,0.4-0.4,1.8,0.6,2.9c1.1,1.1,0.8,1.4-0.5,0.5c-0.5-0.3-1-0.5-1.2-0.3c-0.2,0.1-0.4,0-0.4-0.3c0-1.2-1-1.9-1.8-1.3
		c-1,0.9-2.1,0.2-2.7-1.6c-0.4-1.3-1.9-3-2.5-3c-0.4,0-0.8,1.7-0.6,3c0.1,0.5,0.1,1.1,0.2,1.4c0,0.3,0.5,0.5,1,0.5s1,0.2,1.2,0.5
		c0.4,0.6,0.5,9.9,0.1,9.9c-0.6,0-0.8-4.9-0.2-5.9c0.4-0.7-0.9-3.6-1.9-4c-0.5-0.2-0.8-0.6-0.7-0.8c0.1-0.2,0-0.6-0.2-0.9
		s-0.5-1.4-0.6-2.6c-0.2-2.5-0.3-2.7-1.6-2.9c-0.6-0.1-1.3-0.4-1.6-0.7c-1-1-1.8-0.8-1.8,0.4c0,0.6-0.2,1.1-0.4,1.1
		s-0.4-0.2-0.4-0.5c0-0.7-1.5-1.2-1.9-0.5c-0.2,0.3-0.2,0.6-0.1,0.8c0.3,0.4-1.1-0.1-1.7-0.7c-1.3-1.3-2.3,3.8-1.1,5.6
		c0.4,0.6,0.6,1,0.5,1s0,0.4,0.3,0.9c0.7,1.1,0.7,1.3,0.2,1.3c-0.2,0-0.4-0.2-0.4-0.5s-0.7-1-1.5-1.7s-1.5-1.4-1.5-1.6
		c0-0.6-1.2-1.7-1.7-1.5c-0.7,0.3-1.1-1.2-0.6-2.1c0.8-1.4-0.4-3.4-1.8-3.1c-0.8,0.2-0.9,0.6-0.8,2.4c0,0.7-0.2,1-0.7,1.2
		c-1.4,0.4-1.1,2.6,0.3,2.4c0.9-0.2,1.1-0.1,1.3,0.7c0.1,0.5,0.3,1.1,0.4,1.5c0.1,0.4,0,0.6-0.3,0.6s-0.7-0.3-0.8-0.7
		c-0.1-0.5-0.7-0.8-1.7-0.9c-0.9-0.2-1.5-0.4-1.5-0.8c0-0.6-0.3-0.7-1-0.2c-0.4,0.2-0.3,0.4,0.1,1c0.3,0.4,0.5,1.1,0.6,1.5
		c0,0.4,0.3,1.4,0.8,2.2c0.4,0.9,0.6,1.5,0.4,1.6c-0.6,0.2-0.4,2.1,0.4,4c0.8,1.8,1,3.1,0.4,3.1c-0.7,0-1.6-1.9-2.9-5.9
		c-0.3-0.9-1.3,0.3-1,1.3c0.3,1.2-0.1,1.8-0.8,1.1c-0.9-0.9-1.8-0.5-2,0.9c-0.2,1.5-0.9,1-1.3-1.1c-0.2-0.9-0.5-1.4-0.9-1.5
		c-0.5-0.1-0.7-0.6-0.9-1.9c-0.1-1.1-0.4-1.9-0.8-2.1c-0.3-0.2-0.5-0.5-0.4-0.6c0.1-0.2-0.2-0.2-0.7-0.1c-0.9,0.2-0.9,0.2-0.7,2.8
		c0.2,2.1,0.1,2.6-0.3,2.4c-0.3-0.1-0.5-0.8-0.5-2.2c0-1.2-0.2-2.3-0.5-2.7c-0.5-0.5-0.4-0.6,0.3-0.8c1.5-0.4,0.5-2.1-1.1-1.9
		c-0.6,0.1-0.9,0.4-0.9,1c0,0.5-0.1,1.3-0.3,1.8l-0.3,0.9l-0.9-1.2c-1-1.3-2.3-1.6-2.3-0.4c0,0.4,0.1,0.7,0.3,0.7s0.5,0.6,0.8,1.4
		c0.6,1.7,1.5,2.9,2.5,3.2c1.5,0.5,5.5,4.7,4.4,4.7c-0.5,0-2.4-1.2-2.3-1.5c0.3-0.6-2.3-2.7-3.6-2.9c-1.2-0.1-4-2.4-3-2.4
		c0.6,0,0.6-1.3-0.1-1.8c-1.7-1.4-2.4,2.8-0.9,4.9c0.6,0.9,0.7,1.1,0.3,1.4c-1.1,0.7-1.5,0.2-1.8-2.4c-0.4-3-1.4-4.8-2.8-4.8
		c-1.1,0-1.7,2.3-0.6,2.7c0.2,0.1,0.3,0.5,0.2,0.9s0.1,1,0.5,1.5c0.4,0.4,0.5,0.7,0.2,0.7c-0.2,0-0.4-0.1-0.4-0.3s-0.5-0.5-1-0.8
		c-1.4-0.7-1.6-1.1-1-1.8c0.4-0.4,0.4-0.9,0.2-2.1c-0.3-1.3-0.2-1.8,0.2-2.5c1.2-1.8-0.6-4.3-3.1-4.3c-0.5,0-0.9-0.1-0.9-0.2
		s-0.1-0.5-0.3-0.8c-0.2-0.6-0.2-0.6,0.3-0.3c1.1,0.8,3.7,1,3.7,0.3c0-1.5-2.5-2.8-3.6-1.9c-0.5,0.4-0.7,0-0.5-0.9
		c0.1-0.6-1.1-2.1-1.6-2.1c-0.7,0-1.7,1.4-1.7,2.5c0,0.7-0.2,0.8-1.1,0.8c-0.6,0-1.1-0.2-1.1-0.4c0-0.2-0.3-0.4-0.6-0.4
		c-0.4,0-0.6,0.3-0.5,1.2c0,0.7-0.1,1.6-0.3,2.1c-0.4,1.1,0,5.3,0.6,5.5c0.8,0.3,0.1,3.2-1,3.6c-0.3,0.1-0.5-0.1-0.5-0.7
		c0-1.4-1.7-3.2-3-3.2c-1,0-1.1-0.1-0.8-1c0.5-1.9,0.5-6.9-0.1-7.4c-0.3-0.3-0.5-1.1-0.5-1.8c0-1-0.2-1.4-1.2-2.1
		c-0.7-0.5-1.2-1.1-1.2-1.3c-0.1-1.4-0.2-1.6-0.7-1.6c-0.7,0-1,0.9-0.8,2.6c0.1,0.7,0.2,2.3,0.4,3.6c0.1,1.2,0.6,3.1,1.1,4.1
		l0.9,1.8l-0.9,0.1c-0.5,0.1-0.9,0.2-0.9,0.4c0,0.6,1.3,3.7,1.9,4.3c0.9,1,1.2,2.5,0.6,2.9c-0.3,0.2-0.6,0.1-0.9-0.3
		c-0.9-1.3-1.3-1.6-2-1.6c-0.6,0-0.9,0.6-0.8,1.6c0.1,0.8-0.7,0.1-0.9-0.7c-0.1-0.6-0.3-1.2-0.4-1.4c-0.1-0.2,0.2-0.3,0.6-0.2
		c0.8,0.2,1.3-1.4,0.9-3.1c-0.7-3.5-1-5.2-1-5.8c0-0.4-0.4-0.9-1-1.2c-1.1-0.6-3.3-2.9-3.9-4.2c-0.3-0.6-0.7-0.8-1.6-0.8
		c-1,0-1.2-0.1-1-0.7c0.3-1-0.9-1.5-1.6-0.6c-0.5,0.7-1,0.8-0.8,0.2c0.2-1-1.2-0.7-1.6,0.3c-0.4,1-0.2,2.4,0.4,2.4
		c0.3,0-0.3,2.3-0.7,2.6c-0.1,0.1-0.4,0.9-0.6,1.9c-0.3,1.6-0.4,1.6-0.8,0.8c-0.4-0.7-0.4-1.1,0-1.9c0.4-1,0.4-1.8-0.2-4.7
		c-0.2-1-0.1-1.2,0.9-1.7c0.9-0.4,1.2-0.7,1.2-1.6c0.1-5.3,0.2-7.1,0.6-7.8c0.5-1,0.6-2.7,0.1-2.7c-0.2,0-0.4-0.2-0.4-0.4
		c0-0.3,0.2-0.3,0.6,0.1c0.7,0.6,2.4-0.8,2.4-2.1c0-2.1-2.9-1.7-3,0.5c0,0.9-0.1,0.8-0.6-0.5c-0.5-1.5-0.3-2,0.8-2.1
		c0.8,0,1.4-1.7,0.9-2.6c-0.5-1-0.8-1-1.5-0.1c-0.5,0.7-1.5,0.7-1.5-0.1c0-0.2,0.9-1.4,2-2.6c2.1-2.2,2.3-2.7,1.7-3.9
		c-0.3-0.5-0.2-0.8,0.6-1.1c0.7-0.4,0.9-0.8,0.9-1.7c0-0.7,0.2-1.3,0.4-1.5s0.3-0.1,0.2,0.1c-0.6,0.9,0.9,1.3,1.9,0.5
		c0.6-0.4,1.5-1,2-1.2c0.6-0.2,1.2-0.9,1.5-1.6c0.4-1,0.7-1.2,1.5-1.2c0.6,0,1.2-0.3,1.5-0.7c0.4-0.5,1.2-0.7,3.2-0.8
		c1.5-0.1,2.8-0.3,2.9-0.4c0.1-0.1,0.8-0.3,1.6-0.3c0.9,0,1.6-0.3,2-0.8s1.4-0.9,2.6-1.1c1.1-0.2,2.4-0.6,3-0.9c0.5-0.3,2-1,3.2-1.7
		c1.8-1,2.4-1.1,3.5-0.9c0.7,0.1,1.6,0.2,2,0.2s0.9,0.1,1.2,0.3c0.3,0.2,0.6,0.4,0.8,0.3c0.2,0,0.6,0.1,1,0.2
		c0.4,0.2,0.9,0.1,1.1-0.1c0.9-0.7,6.2-1.3,10.7-1.2c0.8,0,2.3-0.2,3.3-0.5C180.9,247.7,182.6,247.7,184.6,248.4 M232.2,248.9
		c0,0.8,0.3,0.9,1.1,0.4c0.6-0.4,0.2-1.1-0.5-1.1C232.4,248.2,232.2,248.5,232.2,248.9 M75.5,251.8c0,0.5,0.4,1.4,1,2
		c0.7,0.9,0.8,1.2,0.5,1.4c-0.3,0.2-0.7,0-1.2-0.6c-0.4-0.5-0.9-0.9-1.1-0.9c-0.3,0-0.4-0.4-0.4-1s0.1-1.7,0.2-2.5l0.1-1.5l0.5,1.1
		C75.3,250.4,75.5,251.3,75.5,251.8 M58.4,250.5c-0.6,0.4-0.7,3.3-0.2,3.8c1,1,3-0.9,2.4-2.5C60,250,59.5,249.7,58.4,250.5
		 M137.6,252.2c0.1,0.2,0,0.4-0.3,0.4s-0.7-0.2-0.8-0.4c-0.1-0.2,0-0.4,0.3-0.4C137.1,251.9,137.4,252,137.6,252.2 M224.8,254.2
		c0,0.4-0.6,0.4-0.7-0.1c-0.1-0.2,0.1-0.4,0.3-0.3C224.6,253.9,224.8,254,224.8,254.2 M93.9,254.7c-0.4,0.4-0.3,1.5,0.3,2
		c0.9,0.7,1.5-0.1,1-1.3C94.8,254.5,94.4,254.2,93.9,254.7 M221.3,262.2c0.8,6-0.3,5.9-1.4-0.2c-0.1-0.4-0.3-1.2-0.5-1.8
		c-0.7-1.7-0.5-1.9,0.7-0.8C220.7,260.2,221.1,261,221.3,262.2 M86,260.1c0.1,0.6,0,0.9-0.2,0.8s-0.3-0.6-0.3-1.2
		C85.5,258.6,85.8,258.7,86,260.1 M96.3,259.3c-0.7,0.7-0.5,1.7,0.4,1.9c0.7,0.1,0.9,0,0.9-1.1C97.8,258.8,97.2,258.5,96.3,259.3
		 M119.6,260.8c-0.3,0.9-0.4,0.9-0.4,0.1c0-1.1,0.5-2.4,0.6-1.6C120,259.6,119.8,260.3,119.6,260.8 M82.7,262
		c0.1,1.1,0.2,2.6,0.2,3.5s0.2,1.7,0.5,2c0.3,0.2,0.6,1,0.8,1.8c0.1,0.8,0.5,1.7,0.8,2c0.4,0.4,0.4,0.6,0.2,0.6s-0.4-0.1-0.4-0.3
		c0-0.2-0.3-0.4-0.7-0.5c-0.8-0.2-1.5-2.9-1.7-6.7c-0.1-1.5-0.4-2.5-0.9-3.2l-0.8-1h0.9C82.4,260,82.5,260.2,82.7,262 M114.9,260.6
		c0.7,0.3-0.5,3-1.6,3.9c-0.8,0.6-0.9,2.5-0.7,7.6c0.1,1.2-0.1,2.7-0.3,3.2c-0.4,1.1,0.7,4,1.6,4c0.5,0,1.1-1,0.8-1.5
		c-0.1-0.2-0.2-1.1-0.2-2.1s0-3.4,0-5.3c0-3.7,0.4-4.9,1.3-3.9c0.3,0.3,0.5,0.8,0.5,1.2c-0.2,1.5,0.5,2.8,1.3,2.5
		c0.4-0.1,1.2-0.2,1.8-0.2c0.9,0,1-0.1,1-1.3c0-1-0.1-1.2-0.6-1.1s-0.7-0.1-0.7-0.8c0-0.5-0.3-1.2-0.7-1.5c-0.3-0.3-0.5-0.7-0.4-0.8
		c0.1-0.1,0.5,0.1,0.8,0.4s0.7,0.5,0.9,0.4s0.5,0.2,0.7,0.6c0.3,0.6,0.6,0.7,1.3,0.6c0.8-0.2,0.9-0.1,0.7,1.1
		c-0.2,1.3-0.4,1.6-2,3.4c-0.4,0.5-0.7,1.1-0.7,1.4s-0.2,0.5-0.5,0.5c-1.7-0.2-2.1,0.6-2.3,4.2c-0.1,1.4,0,1.8,0.6,1.9
		c0.5,0.1,0.7,0.5,0.7,1.1c0,1.2-0.3,1.2-0.7,0c-1-2.5-1.8-1-1.8,3.5c0,2.3-0.2,3.8-0.6,4.5c-0.4,0.8-0.5,1.3-0.2,1.8
		c0.2,0.4,0.3,1.3,0.2,1.9c-0.1,0.8,0,1.6,0.4,2.3c0.7,1.4,0.7,1.7,0,1.7c-0.9,0-2,1.1-2,1.9c0,1-1,2.8-1.7,3
		c-1.2,0.5-1.2-0.2-0.1-1.7c1.1-1.3,1.1-1.6,0.8-2.6c-0.4-0.9-0.3-1.1,0.3-1.3c1.3-0.4,0.1-3.1-1.4-3.1c-0.3,0-0.5-0.2-0.5-0.4
		c0-0.2,0.5-0.4,1.1-0.4c1.1,0,1.7-0.9,1.5-2.5c0-0.4,0-1.3,0.2-2.1c0.7-3.7,0.7-4,0.1-4c-0.3,0-0.6,0.1-0.6,0.3
		c0,0.2-0.3,0.6-0.6,1c-0.5,0.7-0.6,0.5-0.4-1.8c0.2-2.3,0.1-2.5-0.7-3.2c-0.6-0.5-0.8-0.8-0.4-0.9c0.8-0.3,0.6-9-0.2-10.7l-0.6-1.4
		l1.1-0.7c0.9-0.5,1.1-0.9,1.1-1.8c-0.1-2.5,0-2.8,0.8-2.6c0.5,0.2,0.8,0,1-0.3C114.2,260.3,114.2,260.3,114.9,260.6 M92.6,262.4
		c0,0.3,0.3,0.6,0.7,0.7c0.5,0.2,0.7,0.6,0.7,1.3v1.1l-1.3-1.3c-1.3-1.3-1.5-2-1.1-2.4C92,261.4,92.6,261.8,92.6,262.4 M102.1,262.1
		c-0.5,0.5-0.2,1.2,0.3,1c0.3-0.1,0.6-0.4,0.6-0.7C102.9,261.8,102.5,261.7,102.1,262.1 M185.6,266.4c-1,1.2,1.1,3.4,2.8,3
		c1-0.3,1-0.7-0.1-1.7C186.3,265.8,186.2,265.7,185.6,266.4 M168.8,267.1c-0.6,0.4-0.8,1.8-0.7,3.3c0.1,0.9,1.2,0.8,1.2-0.1
		c0-0.4,0.2-0.7,0.5-0.7c0.6,0,1.1-1.5,0.8-2.4C170.3,266.6,169.6,266.5,168.8,267.1 M172.7,267.2c-0.1,0.3,0.1,0.8,0.4,1.1
		c0.4,0.4,0.5,0.9,0.4,1.7c-0.2,0.9-0.1,1.1,0.4,1.1c0.3,0,0.6-0.2,0.6-0.4c0-0.2,0.2-0.4,0.3-0.4s0.2,0.3,0.1,0.7
		c-0.1,0.5,0,0.7,0.3,0.7c1.3,0,1.9-1.8,0.9-2.6c-0.3-0.2-0.6-0.9-0.8-1.5C175.1,266.5,173.1,266.1,172.7,267.2 M101.2,268.2
		c-0.3,0.5-0.9,0-0.9-0.7c0-0.5,0.1-0.5,0.6-0.1C101.2,267.7,101.4,268,101.2,268.2 M181.3,268.1c-0.3,0.4-0.6,0.9-0.6,1.1
		s-0.2,0.4-0.4,0.4s-0.4,0.2-0.4,0.6c0,0.3,0.2,0.6,0.6,0.6c0.3,0,0.6-0.2,0.6-0.5s0.3-0.5,0.8-0.3c0.5,0.1,0.7,0.4,0.6,0.9
		c-0.1,0.4,0,0.8,0.4,0.9c0.8,0.3,1.4-0.4,1.1-1.3c-0.2-0.4-0.3-1.1-0.3-1.5c-0.1-0.8-0.7-1.5-1.4-1.5
		C182,267.4,181.7,267.7,181.3,268.1 M210.7,269.1c0,0.2-0.3,0.1-0.6-0.3c-0.3-0.4-0.5-0.9-0.5-1.1s0.3-0.1,0.6,0.3
		C210.5,268.3,210.7,268.8,210.7,269.1 M67.2,269.6c0.3-0.5,1.3-0.5,1.3,0c0,0.2,0.2,0.6,0.6,1c0.3,0.3,0.6,0.7,0.6,1
		c0,0.2-0.3,0-0.7-0.4c-0.8-0.9-1.7-1-2-0.3c-0.3,0.8,0.7,3.3,1.5,3.8c0.9,0.4,3,3,3,3.6c0,0.2,0.4,0.8,0.9,1.2
		c0.5,0.5,0.9,1.1,0.9,1.4s0.8,1.3,1.9,2.1c1.9,1.7,2.2,2.3,1.3,2.7c-0.3,0.1-0.6,0.5-0.6,0.9s-0.2,0-0.4-0.7
		c-0.2-0.8-0.7-1.8-1.2-2.3c-1.1-1.2-2.1-2.4-2.1-2.6c0-0.1-0.4-0.6-0.8-1.1c-0.5-0.5-1.1-1.7-1.5-2.7c-0.5-1.4-0.9-1.9-2-2.3
		c-1-0.5-1.4-0.8-1.5-1.6c-0.1-0.6-0.2-1.1-0.4-1.3c-0.4-0.3-1.2-2.1-1.2-2.7c0-0.2,0.5-0.1,1.1,0.2
		C66.6,269.8,67.1,269.9,67.2,269.6 M163.1,270c-0.1,0.6-0.6,1.8-1.1,2.7c-1.2,2.1-1.1,3.2,0.4,3.2c0.4,0,1.7-1.5,1.7-1.9
		c0-0.3,0.5-1,1.1-1.5c1.4-1.2,1.5-3,0.3-3.3C163.8,268.7,163.4,268.9,163.1,270 M213.2,272.3c0.8,1.4,1.1,2.5,0.5,2.5
		c-0.2,0-0.5-0.5-0.8-1.2s-0.7-1.5-0.9-1.8c-0.2-0.3-0.6-1-0.7-1.5C210.9,269.2,211.9,270.2,213.2,272.3 M203.3,270.9
		c0,0.3,0.3,0.6,0.8,0.6c0.9,0,0.8-0.9-0.2-1C203.6,270.4,203.3,270.6,203.3,270.9 M170.1,273.2c0.1,2.5,0.5,3,2,2.5
		s1.6-2.2,0.3-3.6C170.7,270.4,170,270.8,170.1,273.2 M182,272.8c0.1,0.3,0.2,0.7,0.2,0.9s0.2,0.3,0.6,0.3c0.3,0,0.6-0.4,0.6-0.9
		c0-0.7-0.2-0.9-0.8-0.9S181.8,272.4,182,272.8 M184.9,273.3c-1.4,0.7-1.6,1.5-0.3,1.5c0.5,0,1.6,0.3,2.4,0.7
		c1.4,0.7,2.3,0.5,2.3-0.4c0-0.4-1.2-1.6-2.1-2.1C186.2,272.5,186.4,272.5,184.9,273.3 M174.4,273.7c-0.9,0.9-1,2-0.2,2.7
		c0.3,0.3,0.4,0.7,0.3,0.8c-0.1,0.1,0.2,0.2,0.7,0.1c0.6-0.1,0.9-0.4,0.9-0.8s-0.1-1.3-0.1-2.1C175.9,272.8,175.5,272.6,174.4,273.7
		 M61.1,274.5c0,0.2,0.6,1.2,1.3,2.3c0.7,1,1.3,2,1.3,2.2s0.2,0.3,0.6,0.3c0.8,0,0.7-0.7-0.2-2.5C63.3,275.3,61.1,273.6,61.1,274.5
		 M102.8,276.9c0,1.5-0.2,2.6-0.5,2.8c-0.4,0.3-0.5,0.2-0.5-0.7c0-0.6-0.2-1.6-0.4-2.1c-0.3-0.7-0.2-1.2,0.1-1.7
		C102.4,273.8,102.9,274.3,102.8,276.9 M159.5,276.9c-1.3,1.7,0,3.3,1.3,1.7c0.8-1,0.8-2.1,0.1-2.3
		C160.1,275.9,160.3,275.8,159.5,276.9 M216,276.5c0.6,0.2,1.2,1.3,0.8,1.3c-0.1,0-0.8-0.4-1.4-1c-0.6-0.5-0.9-0.9-0.6-0.7
		C215.1,276.2,215.6,276.4,216,276.5 M186.6,278.2c-0.5,0.8-0.4,0.9,0.9,0.4c1.1-0.4,1.3-1.1,0.2-1.1
		C187.4,277.4,186.9,277.8,186.6,278.2 M219.7,279.6c0.7,0.6,0.9,1.6,0.2,1.6c-0.5,0-2.2-1.4-2.2-1.9
		C217.8,278.8,219.1,279,219.7,279.6 M184.8,280.2c0,0.5,0.3,1,0.6,1.2c0.8,0.3,1,0,0.7-1.1C185.8,279,184.8,279,184.8,280.2
		 M174.3,280.2c-0.3,0.3-0.3,1.8,0,2.1c0.1,0.1,0.2,0.8,0.2,1.5c-0.2,1.8,1.8,2.9,2.3,1.3c0.2-0.7,0.3-0.7,1.3,0.4
		c1.2,1.3,1.4,1.3,2.2,0.5c1.3-1.2,0.3-2.2-2.2-2.1c-0.7,0-2-1.6-2.3-2.8C175.7,280.2,174.8,279.7,174.3,280.2 M79.7,281.1
		c0.5,0.5,0.8,3.4,0.4,3.4c-0.2,0-0.8-0.9-1.3-2C77.9,280.5,78.4,279.7,79.7,281.1 M109.1,282.5c-0.1,0.4-0.2,0.1-0.2-0.6
		s0.1-1,0.2-0.6C109.2,281.6,109.2,282.2,109.1,282.5 M128,281c-0.5,0.5-0.2,0.9,0.5,0.9c0.4,0,0.7-0.2,0.7-0.6
		C129.2,280.7,128.5,280.5,128,281 M91.1,282.9c0.2,1,0.2,1.1-0.2,0.7c-0.7-0.8-1.1-2.3-0.5-2.1C90.7,281.7,91,282.3,91.1,282.9
		 M120.3,285.1c0,0.3,0.2,0.5,0.4,0.5s0.4,0.2,0.4,0.5s0.1,0.6,0.3,0.7s0.1,0.1-0.2,0.1c-0.2-0.1-0.7,0.1-1.1,0.4
		c-1.1,0.8-1.2,0.7-1.1-1c0-0.9-0.1-2.1-0.2-2.7l-0.3-1.1l0.9,1.1C119.9,284.1,120.3,284.8,120.3,285.1 M128.1,283.1
		c-0.8,1-0.1,2.9,1,2.7c1.2-0.1,1.6-1.7,0.6-2.7C129,282.5,128.7,282.5,128.1,283.1 M104.3,284.5c0.3,0.8,0.3,1.1-0.1,1.4
		c-0.7,0.6-1,0.1-1-1.6C103.3,282.8,103.6,282.8,104.3,284.5 M124.8,284.2c0,0.3,0.3,0.6,0.6,0.6c0.7,0,0.5-0.8-0.1-1
		C125,283.7,124.8,283.9,124.8,284.2 M135.6,285.3c-0.5,0.5-0.6,2.1-0.1,2.1c0.2,0,0.5,0.4,0.8,0.9c0.5,1,1.5,1.3,1.5,0.5
		C137.7,286.7,136.4,284.5,135.6,285.3 M220.5,285.4c0.2,0.4,0,0.5-0.4,0.5c-0.3-0.1-0.7-0.3-0.8-0.6
		C219.1,284.6,220.2,284.7,220.5,285.4 M108.5,287.1c0.9,1.8,0.7,2.4-0.3,0.8c-0.4-0.6-0.8-1.2-0.9-1.2c-0.1,0-0.2-0.3-0.1-0.6
		C107.6,285.3,107.7,285.4,108.5,287.1 M82.6,287.5c0.2,0.6,0.6,1.1,0.8,1.1s0.3,0.2,0.3,0.5s0.2,0.6,0.4,0.6c0.6,0.2,0.6,1.9,0,2.1
		c-0.4,0.1-0.6-0.2-0.6-0.9c0-0.6-0.2-1.1-0.5-1.2c-0.2-0.1-0.4-0.4-0.4-0.7c0-0.3-0.2-0.5-0.4-0.5c-0.3,0-1.5-1.9-1.5-2.4
		C80.7,285.5,82.2,286.6,82.6,287.5 M129.8,288.1c0.1,1,0.3,2,0.3,2.2c0,0.6,0.7,0.6,1.3,0.1c0.3-0.3,0.8,0,1.6,0.7
		c1.1,1,2.6,1.5,2.6,0.9s-1.2-3.6-1.6-4.1c-0.3-0.3-0.8-0.4-1.6-0.3c-1,0.2-1.2,0.1-1.4-0.5C130.5,285.3,129.5,286.2,129.8,288.1
		 M201.7,287.4c-0.3,1.1,0.1,1.8,1.4,2.3c0.6,0.3,1.3,0.6,1.4,0.7c0.4,0.6,3,0.8,3,0.2c0-0.7-1.3-2.1-1.9-2.1
		c-0.3,0-0.8-0.3-1.1-0.7C203.6,286.8,201.9,286.5,201.7,287.4 M177.9,289c-0.4,1.2-0.4,1.2,0.7,1.1c1.1-0.2,1.4-1,0.6-1.8
		C178.5,287.6,178.3,287.7,177.9,289 M138.8,289c-0.5,1.3,0.2,3.6,1,3.5c0.7-0.1,0.8-0.4,0.9-2c0.1-1,0-1.7-0.1-1.6
		s-0.6,0.1-0.9-0.1C139.1,288.7,138.9,288.7,138.8,289 M118.9,292.2c0,1.6,0.1,3.2,0.2,3.6c0.2,0.6,0.1,0.6-0.3-0.1
		c-0.3-0.4-0.5-1.3-0.6-2s-0.1-1.4-0.2-1.5c-0.1-1.1,0.1-3,0.4-3C118.7,289.3,118.9,290.5,118.9,292.2 M141.2,289.8
		c-0.1,0.4,0,0.8,0.3,1c0.4,0.2,0.5,0.6,0.4,1.1c-0.1,0.6-0.1,0.7,0.3,0.6c0.8-0.3,0.7-3-0.1-3.2
		C141.7,289.3,141.3,289.5,141.2,289.8 M157.3,290.6c-0.4,0.1-0.6,0.4-0.6,0.7c0,0.8,0.7,0.6,1.1-0.2c0.2-0.4,0.3-0.7,0.3-0.7
		C158,290.4,157.6,290.5,157.3,290.6 M95.9,291.9c0,0.2,0.5,0.8,1,1.3c0.6,0.5,0.8,0.9,0.5,0.9c-0.6,0-2.3-1.8-2.3-2.5
		c0-0.3,0.2-0.4,0.4-0.3C95.7,291.4,95.9,291.7,95.9,291.9 M131.1,291.9c0,0.8,0.8,1.8,1.3,1.8c0.3,0,0.5,0.1,0.5,0.3
		c0,0.6,1.2,0.8,1.5,0.3c0.6-0.9,0.4-1.9-0.3-1.6c-0.4,0.1-0.8,0-1.1-0.5C132.5,291.5,131.1,291.2,131.1,291.9 M203.2,291.7
		c-0.4,0.4,0.6,2,1.3,2c0.5,0,0.7-0.3,0.7-0.9C205.2,291.8,203.9,291.1,203.2,291.7 M146.7,293.1c0.1,0.8,0.3,1.2,0.7,1.2
		s0.6-0.4,0.7-1.2c0.1-1,0-1.2-0.7-1.2S146.6,292,146.7,293.1 M144.3,292.9c-0.4,0.4-0.3,0.9,0.3,0.9c0.3,0,0.6-0.2,0.6-0.6
		C145.2,292.6,144.7,292.4,144.3,292.9 M156.3,293.2c0,1.3,0.9,3.1,1.6,3.1c0.8,0,0.8-2,0-3.1C157.1,292.4,156.3,292.4,156.3,293.2
		 M178.6,292.9c-0.9,0.3-0.6,4.2,0.4,4.2c1.3,0,1.9-1.2,1.3-2.8C179.8,293,179.4,292.6,178.6,292.9 M198.5,294.2
		c0,1,0.5,1.7,1.2,1.7s0.9-0.6,0.5-1.6C199.8,293.6,198.5,293.5,198.5,294.2 M127.1,294.6c0.1,0.3,0,0.7-0.1,1
		c-0.2,0.4-0.3,0.2-0.3-0.5C126.6,294,126.8,293.8,127.1,294.6 M141.9,294.4c-0.3,0.2-0.4,1-0.3,2.3c0.1,1.1,0.2,2.5,0.2,3
		c0,0.6,0.3,1,0.8,1.2c1,0.3,1.3-0.3,1.4-3C144,294.6,143.4,293.5,141.9,294.4 M181.6,295c-0.1,0.5-0.1,1,0,1.2s-0.1,1-0.5,1.8
		c-1,2.1-0.6,4.1,0.7,3.4c0.5-0.3,1.6-2.8,1.4-3.2c-0.1-0.2,0.2-0.6,0.7-1c1.3-0.8,1.2-1.9-0.2-2.6
		C182.2,293.9,181.9,293.9,181.6,295 M192.6,295.4c0.1,0.7,0.4,1.1,0.8,1.2c0.5,0.1,0.7-0.1,0.6-0.9c-0.1-0.7-0.4-1.1-0.8-1.2
		C192.6,294.4,192.5,294.6,192.6,295.4 M208.9,295.3c0.1,0.4,0.4,0.9,0.8,0.9c1,0.2,0.8-1.3-0.1-1.5
		C209,294.6,208.8,294.7,208.9,295.3 M187.4,295.3c0,0.9,0.9,1.8,1.6,1.6c0.8-0.3,0.9-1.6,0.1-1.6c-0.3,0-0.8-0.1-1.1-0.2
		C187.6,294.8,187.4,294.9,187.4,295.3 M108.9,295.8c0,0.2-0.2,0.4-0.4,0.5s-0.4-0.1-0.4-0.5c0-0.3,0.2-0.6,0.4-0.5
		C108.7,295.3,108.9,295.6,108.9,295.8 M128.6,302.2c0.6,1.9,0.6,2.6-0.1,2.6c-0.2,0-0.2-0.3-0.1-0.7c0.1-0.4-0.1-1.3-0.5-2
		c-0.4-0.7-0.8-2.2-1-3.4l-0.2-2.2l0.7,1.9C127.7,299.4,128.3,301.1,128.6,302.2 M215.2,297.2c0,0.3,0.2,0.6,0.6,0.6
		c0.3,0,0.6-0.2,0.6-0.6c0-0.3-0.2-0.6-0.6-0.6C215.4,296.7,215.2,296.9,215.2,297.2 M107.2,298.5c0.7,0.3,0.9,0.6,0.9,1.3
		c0,0.6,0.4,1.2,1.1,1.7c0.6,0.4,1.1,1,1.1,1.3s0.2,0.5,0.4,0.5c0.7,0,0,0.5-0.8,0.6c-0.4,0-0.8-0.2-0.9-0.6
		c-0.1-0.4-0.8-1.1-1.5-1.5c-1.1-0.7-2.2-3.6-1.4-3.6C106.2,298.2,106.7,298.3,107.2,298.5 M159.3,298.4c-0.3,0.1-0.5,0.4-0.5,0.7
		c0,0.8,1.3,0.5,1.4-0.3C160.4,298.2,160.2,298.1,159.3,298.4 M172.2,299.3c-0.5,0.3-0.5,0.5,0.1,1.4c0.4,0.6,0.6,1.4,0.6,1.8
		c0,0.8,0.9,1.3,1.9,1c0.9-0.3,0.9-1.5-0.1-2.9C173.5,298.9,173.1,298.7,172.2,299.3 M161.6,300.6c-0.3,0.7,1.7,3.9,2.4,3.9
		c0.3,0,0.5,0,0.5-0.1c0.3-1.3,0.3-3.4,0-3.8C163.8,299.8,161.9,299.9,161.6,300.6 M122.9,302.3c0,0.2-0.2,0.3-0.4,0.3
		s-0.4-0.2-0.4-0.3c0-0.2-0.1-0.6-0.2-1c-0.2-0.6-0.2-0.6,0.4,0C122.7,301.7,122.9,302.1,122.9,302.3 M150.2,303.8
		c-0.6,1.9-1,1.7-1-0.6c0-2.3,0.3-2.9,1-1.6C150.6,302.2,150.6,302.8,150.2,303.8 M195.2,302.2c-0.3,0.6-0.3,1,0.2,1.6
		c0.3,0.4,0.6,1.1,0.6,1.5s0.4,1,0.8,1.4s0.7,0.7,0.5,0.7s-0.1,0.2,0.1,0.5c0.7,0.9,0.8,2.2,0.2,2c-0.3-0.1-0.7-0.2-0.9-0.2
		c-0.2,0-0.3-0.3-0.1-0.7c0.1-0.4,0-1.1-0.3-1.6s-0.6-1.2-0.6-1.7s-0.3-1.3-0.6-1.9c-0.5-0.8-0.5-1.2-0.1-2.1
		c0.2-0.6,0.5-0.9,0.6-0.7C195.5,301.3,195.4,301.8,195.2,302.2 M198.3,302c0.1,0.3,0.5,0.6,0.8,0.6s0.6,0.2,0.6,0.4
		s0.3,0.7,0.8,1.1c0.4,0.4,0.6,0.9,0.5,1.1s0.1,0.8,0.6,1.3c0.6,0.6,0.7,1,0.5,1.5c-0.4,0.7-1.9-1.5-1.9-2.6c0-0.3-0.2-0.6-0.6-0.8
		c-0.3-0.1-0.6-0.5-0.6-0.8s-0.4-1-0.8-1.4c-0.4-0.5-0.6-0.9-0.4-0.9C197.9,301.5,198.1,301.7,198.3,302 M208.3,302
		c-0.1,0.3-0.3,0.8-0.3,1.1c-0.1,0.4,0.1,0.6,0.8,0.6c1.1,0,1.5-0.9,0.8-1.7C208.8,301.3,208.5,301.3,208.3,302 M94.4,302.7
		c0,0.2,0.3,0.7,0.6,1.1c0.8,0.9,0.1,0.9-0.9-0.1c-0.9-0.9-1.1-1.9-0.3-1.6C94.2,302.2,94.4,302.5,94.4,302.7 M142,302.6
		c-0.3,1,0.1,2.2,0.7,2.2c0.6,0,0.9-0.8,0.9-2.1C143.7,301.6,142.4,301.5,142,302.6 M158.6,302.4c-0.4,1.1,0.6,3.2,1.6,3.2
		c0.8,0,0.9-0.1,0.7-1C160.4,302.4,159.1,301.2,158.6,302.4 M217.2,302.9c-0.1,0.3-0.3,0.7-0.5,0.8c-0.6,0.2-0.6-0.9,0-1.2
		c0.3-0.1,0.5-0.2,0.5-0.2C217.3,302.2,217.3,302.5,217.2,302.9 M121.1,306.5c0.3,0.3,0.9,0.6,1.3,0.6c1.2,0,1.2,1.4-0.1,2.4l-1,0.7
		l0.2-1.3c0.2-1.2,0.2-1.3-0.7-1.5c-0.5-0.1-0.9-0.5-0.9-0.8C120,305.8,120.5,305.8,121.1,306.5 M151.4,308.9c0,0.3,0.3,0.9,0.7,1.2
		c0.4,0.4,1,1.3,1.4,2.1l0.7,1.4l-0.8-0.6c-0.5-0.3-1-1.1-1.1-1.7s-0.6-1.2-1.1-1.4c-0.9-0.4-1-0.5-1-1.8c0-0.4,0-0.9,0-1
		C150.4,306.7,151.4,308.3,151.4,308.9 M178.9,309.1c0,0.3,0.2,0.6,0.6,0.6c0.3,0,0.6-0.2,0.6-0.6c0-0.3-0.2-0.6-0.6-0.6
		S178.9,308.8,178.9,309.1 M148.3,310.8c0,0.3,0.2,0.5,0.4,0.5c0.7,0,1,0.4,1.1,1.9c0.2,2.2,0.4,3.3,0.7,3.8
		c0.2,0.3,0.1,0.4-0.2,0.3c-0.7-0.2-1.4-1.8-1.4-3.1c0-3.4-2.5-2.7-3.1,0.8c-0.2,1.3-1.8,2.7-3.8,3.4c-0.5,0.2-0.6,0.2-0.1-0.4
		c0.3-0.3,0.7-0.6,1-0.6s0.6-0.4,0.7-0.9c0.1-0.5,0.4-0.9,0.5-0.9c0.6,0,1.2-2.5,0.7-3.3c-0.4-0.7-0.3-0.8,0.5-0.8
		c0.5,0,1.2-0.3,1.6-0.7C147.6,310,148.3,310,148.3,310.8 M196.1,311.8c0,1.3,2.6,3.9,3.7,3.6c0.8-0.2,0.9-0.1,1,2.1
		c0.1,1.7,0.4,2.6,0.9,3.2c0.5,0.5,0.7,1.1,0.6,1.6c-0.2,0.8-0.2,0.8-0.6-0.1c-0.2-0.5-0.9-1.7-1.6-2.6s-1.2-1.8-1.2-2.1
		c0-0.5-2.9-3.5-3.4-3.5c-0.2,0-0.8-2-0.9-3.4c-0.1-0.6,0-0.6,0.7-0.1C195.7,310.8,196.1,311.3,196.1,311.8 M122.3,311.7
		c0.1,0.4,0,0.6-0.5,0.6c-0.9,0-1.3-0.6-0.7-0.9C122,311.1,122.1,311.1,122.3,311.7 M109.7,312.3c1.2,0.8,2.3,2,2,2.3
		c-0.2,0.2-4-2.4-4-2.8C107.8,311.3,108.4,311.4,109.7,312.3 M190.5,318.5c0,0.4-0.1,0.7-0.3,0.6c-0.2-0.1-0.3-0.2-0.3-0.4
		c0-0.1,0-0.5,0-0.9C190,317.1,190.5,317.6,190.5,318.5"/>
</g>
</svg>
